<svg width="12" height="13" viewBox="0 0 12 13" fill="none" xmlns="http://www.w3.org/2000/svg">
<path d="M5.25 10.75C6.40375 10.75 7.46438 10.3531 8.31063 9.695L11.0581 12.4425L11.9419 11.5588L9.19438 8.81125C9.85313 7.96438 10.25 6.90375 10.25 5.75C10.25 2.99313 8.00688 0.75 5.25 0.75C2.49313 0.75 0.25 2.99313 0.25 5.75C0.25 8.50688 2.49313 10.75 5.25 10.75ZM5.25 2C7.31812 2 9 3.68187 9 5.75C9 7.81812 7.31812 9.5 5.25 9.5C3.18187 9.5 1.5 7.81812 1.5 5.75C1.5 3.68187 3.18187 2 5.25 2Z" fill="white"/>
</svg>
