<svg width="500" height="500" viewBox="0 0 500 500" fill="none" xmlns="http://www.w3.org/2000/svg">
<path d="M463.74 196.45L455.48 201.22V181.56L451.35 179.18L443.09 183.94V187.63L434.83 192.4V171.89L426.57 167.13L418.31 171.89V174L410.05 178.77V152.87L401.79 148.1L393.53 152.87V139.42L385.27 134.65L372.88 141.8V146.57L364.62 151.34V155.25L356.36 150.49V133.86C356.36 133.86 348.25 129.33 348.1 129.33C347.95 129.33 339.84 133.86 339.84 133.86V141L331.58 136.23L323.32 141V150.54L315.06 155.3V131.08L310.94 128.69L306.81 131.08V140.61L302.68 138.23L294.42 143V135.73L290.29 133.35L282 138.12V150.12L277.87 147.74V143L269.61 138.23L261.38 143V138.23L249 131.07L240.74 135.84V126.3L232.48 121.54L224.22 126.3V139.56L220.09 141.94V132.41L211.83 127.64L203.57 132.41V146.71L191.18 139.56V130L182.92 125.23L174.65 130V144.31L170.52 141.92L162.27 146.69V152.51L154 157.3V148.42L145.74 143.65L133.35 150.8V143.14L125.09 138.37L112.7 145.52V161L100.31 153.84L83.8 163.39V155.58L75.54 150.81L67.28 155.58V169.92L59 174.68V182.79L46.63 190V184.81L38.37 180L26.59 186.8V307.55H473.41V202L463.74 196.45Z" fill="#EBEBEB"/>
<path d="M77.67 251.46C-17.51 306.4 -17.51 395.46 77.67 450.46C172.85 505.46 327.16 505.4 422.33 450.46C517.5 395.52 517.51 306.46 422.33 251.46C327.15 196.46 172.84 196.5 77.67 251.46Z" fill="#FAFAFA"/>
<path d="M45.68 217.07C46.6081 216.978 47.5433 217.148 48.38 217.56C49.951 218.449 51.4285 219.495 52.79 220.68C54.1661 221.867 55.8727 222.603 57.68 222.79C59.49 222.85 61.43 221.73 61.76 219.96C61.7843 219.646 61.8621 219.338 61.99 219.05C62.1683 218.825 62.4151 218.664 62.693 218.592C62.9709 218.52 63.2647 218.54 63.53 218.65C64.0522 218.89 64.5511 219.178 65.02 219.51C66.84 220.59 69.13 220.34 71.22 220.04C72.97 219.79 75.22 219.04 75.16 217.25C75.16 216.1 74.16 215.25 73.36 214.42C72.56 213.59 71.93 212.25 72.65 211.35C72.9195 211.055 73.2657 210.84 73.65 210.73C75.83 210.02 78.5 210.97 80.34 209.6C80.9958 209.052 81.4502 208.302 81.6313 207.467C81.8124 206.632 81.7099 205.76 81.34 204.99C80.9431 204.234 80.3857 203.573 79.7069 203.055C79.028 202.537 78.2441 202.174 77.41 201.99C75.95 201.61 74.09 201.44 73.54 199.99C73.06 198.76 74.02 197.42 75.11 196.66C76.2 195.9 77.5 195.37 78.25 194.28C78.6244 193.703 78.8327 193.033 78.8521 192.345C78.8715 191.658 78.7013 190.978 78.36 190.38C78.0074 189.788 77.5307 189.28 76.9628 188.889C76.3948 188.499 75.7491 188.237 75.07 188.12C74.3859 188.075 73.712 187.931 73.07 187.69C72.7544 187.559 72.5015 187.311 72.3637 186.998C72.2259 186.685 72.2138 186.331 72.33 186.01C72.53 185.65 72.94 185.46 73.18 185.13C73.3605 184.774 73.4011 184.362 73.2938 183.977C73.1865 183.593 72.939 183.262 72.6 183.05C71.9011 182.662 71.1502 182.375 70.37 182.2C68.79 181.67 67.97 180.83 68.44 179.2C68.91 177.57 71.18 177.66 71.85 176.06C72.45 174.65 70.85 171.64 69.54 170.77C68.1882 170.044 66.7844 169.419 65.34 168.9C63.95 168.24 62.6 167.09 62.49 165.55C62.38 164.01 63.55 162.66 64.49 161.42C65.43 160.18 66.27 158.42 65.43 157.09C64.59 155.76 62.84 155.74 61.43 155.28C60.5488 154.999 59.737 154.534 59.0477 153.917C58.3584 153.3 57.8071 152.545 57.43 151.7C57.04 150.81 56.86 149.84 56.43 148.99C55 146.35 51.43 145.19 48.62 145.52C48.0577 145.556 47.5152 145.741 47.0491 146.058C46.583 146.375 46.2104 146.81 45.97 147.32C45.486 147.835 45.1417 148.465 44.97 149.15C44.76 150.42 45.43 152.05 44.23 153.02C42.4 154.5 39.6 152.51 39.7 155.82C39.7014 157.217 39.9103 158.605 40.32 159.94C40.81 161.33 41.81 161.94 40.98 163.49C39.91 165.49 39.21 165.49 37.05 165.49C35.49 165.49 34.19 165.4 33.05 166.58C31.05 168.66 32.24 170.58 34.05 172.15C36.05 173.97 35 174.76 34.74 177.15C34.61 178.29 34.87 178.64 33.85 179.39C31.93 180.82 30.85 180.34 31.4 183.13C31.89 185.68 31.13 184.8 28.93 185.75C26.93 186.6 25.67 188.7 24.09 190.02C23.09 190.87 21.51 191.52 21.42 193.02C21.23 195.86 24.77 195.23 26.42 195.91C29.16 197.02 28.34 200.62 26.2 201.97C24.06 203.32 20.62 203.97 20.44 207.18C20.3 209.67 21.72 210.23 23.66 211.06C25.2 211.73 25.01 211.92 25 213.77C25 217.49 26.25 218.54 29.92 217.94C31.0694 217.611 32.2724 217.513 33.46 217.65C34.87 218.07 34.39 218.42 34.46 219.59C34.56 222.59 38.06 221.75 39.54 220.46C41.22 219 43.36 217.3 45.68 217.07Z" fill="#019444"/>
<path opacity="0.3" d="M45.68 217.07C46.6081 216.978 47.5433 217.148 48.38 217.56C49.951 218.449 51.4285 219.495 52.79 220.68C54.1661 221.867 55.8727 222.603 57.68 222.79C59.49 222.85 61.43 221.73 61.76 219.96C61.7843 219.646 61.8621 219.338 61.99 219.05C62.1683 218.825 62.4151 218.664 62.693 218.592C62.9709 218.52 63.2647 218.54 63.53 218.65C64.0522 218.89 64.5511 219.178 65.02 219.51C66.84 220.59 69.13 220.34 71.22 220.04C72.97 219.79 75.22 219.04 75.16 217.25C75.16 216.1 74.16 215.25 73.36 214.42C72.56 213.59 71.93 212.25 72.65 211.35C72.9195 211.055 73.2657 210.84 73.65 210.73C75.83 210.02 78.5 210.97 80.34 209.6C80.9958 209.052 81.4502 208.302 81.6313 207.467C81.8124 206.632 81.7099 205.76 81.34 204.99C80.9431 204.234 80.3857 203.573 79.7069 203.055C79.028 202.537 78.2441 202.174 77.41 201.99C75.95 201.61 74.09 201.44 73.54 199.99C73.06 198.76 74.02 197.42 75.11 196.66C76.2 195.9 77.5 195.37 78.25 194.28C78.6244 193.703 78.8327 193.033 78.8521 192.345C78.8715 191.658 78.7013 190.978 78.36 190.38C78.0074 189.788 77.5307 189.28 76.9628 188.889C76.3948 188.499 75.7491 188.237 75.07 188.12C74.3859 188.075 73.712 187.931 73.07 187.69C72.7544 187.559 72.5015 187.311 72.3637 186.998C72.2259 186.685 72.2138 186.331 72.33 186.01C72.53 185.65 72.94 185.46 73.18 185.13C73.3605 184.774 73.4011 184.362 73.2938 183.977C73.1865 183.593 72.939 183.262 72.6 183.05C71.9011 182.662 71.1502 182.375 70.37 182.2C68.79 181.67 67.97 180.83 68.44 179.2C68.91 177.57 71.18 177.66 71.85 176.06C72.45 174.65 70.85 171.64 69.54 170.77C68.1882 170.044 66.7844 169.419 65.34 168.9C63.95 168.24 62.6 167.09 62.49 165.55C62.38 164.01 63.55 162.66 64.49 161.42C65.43 160.18 66.27 158.42 65.43 157.09C64.59 155.76 62.84 155.74 61.43 155.28C60.5488 154.999 59.737 154.534 59.0477 153.917C58.3584 153.3 57.8071 152.545 57.43 151.7C57.04 150.81 56.86 149.84 56.43 148.99C55 146.35 51.43 145.19 48.62 145.52C48.0577 145.556 47.5152 145.741 47.0491 146.058C46.583 146.375 46.2104 146.81 45.97 147.32C45.486 147.835 45.1417 148.465 44.97 149.15C44.76 150.42 45.43 152.05 44.23 153.02C42.4 154.5 39.6 152.51 39.7 155.82C39.7014 157.217 39.9103 158.605 40.32 159.94C40.81 161.33 41.81 161.94 40.98 163.49C39.91 165.49 39.21 165.49 37.05 165.49C35.49 165.49 34.19 165.4 33.05 166.58C31.05 168.66 32.24 170.58 34.05 172.15C36.05 173.97 35 174.76 34.74 177.15C34.61 178.29 34.87 178.64 33.85 179.39C31.93 180.82 30.85 180.34 31.4 183.13C31.89 185.68 31.13 184.8 28.93 185.75C26.93 186.6 25.67 188.7 24.09 190.02C23.09 190.87 21.51 191.52 21.42 193.02C21.23 195.86 24.77 195.23 26.42 195.91C29.16 197.02 28.34 200.62 26.2 201.97C24.06 203.32 20.62 203.97 20.44 207.18C20.3 209.67 21.72 210.23 23.66 211.06C25.2 211.73 25.01 211.92 25 213.77C25 217.49 26.25 218.54 29.92 217.94C31.0694 217.611 32.2724 217.513 33.46 217.65C34.87 218.07 34.39 218.42 34.46 219.59C34.56 222.59 38.06 221.75 39.54 220.46C41.22 219 43.36 217.3 45.68 217.07Z" fill="white"/>
<path opacity="0.45" d="M73.66 210.73C75.34 210.19 77.3 210.62 78.95 210.23C77.9639 209.995 76.9608 209.838 75.95 209.76C74.7643 209.707 73.5807 209.905 72.4774 210.343C71.3742 210.781 70.3764 211.448 69.55 212.3C70.4316 213.381 70.8901 214.746 70.84 216.14C66.68 217.26 62.59 211.69 58.63 213.39C58.87 215.39 58.63 218.1 56.63 218.54C56.0449 218.598 55.4551 218.494 54.9256 218.238C54.3962 217.982 53.9478 217.585 53.63 217.09C52.92 216.15 52.48 215.02 51.76 214.09C50.7525 212.877 49.3315 212.08 47.7711 211.853C46.2107 211.626 44.6215 211.985 43.31 212.86C42.24 213.64 40.89 214.86 39.82 214.04C38.75 213.22 39.37 210.95 38.1 210.31C37.25 209.89 36.1 210.56 35.36 209.93C35.101 209.653 34.9304 209.305 34.87 208.93C34.37 206.8 33.93 204.35 35.27 202.62C36.46 201.08 38.98 200.14 38.71 198.21C38.48 196.57 36.39 196.07 34.71 195.88C33.03 195.69 30.97 194.88 31.05 193.25C31.13 191.62 33.34 190.84 33.66 189.25C33.8 188.57 33.57 187.81 33.88 187.19C34.35 186.25 35.69 186.19 36.48 185.52C37.89 184.27 36.8 181.93 37.2 180.09C37.48 178.79 38.53 177.77 38.88 176.48C39.58 173.91 37.24 171.48 34.8 170.42C33.8302 170.082 32.8957 169.65 32.01 169.13L32 169C32.2292 170.29 32.9452 171.443 34 172.22C36 174.04 34.95 174.83 34.69 177.22C34.56 178.36 34.82 178.71 33.8 179.46C31.88 180.89 30.8 180.41 31.35 183.2C31.84 185.75 31.08 184.87 28.88 185.82C26.88 186.67 25.62 188.77 24.04 190.09C23.04 190.94 21.46 191.59 21.37 193.09C21.18 195.93 24.72 195.3 26.37 195.98C29.11 197.09 28.29 200.69 26.15 202.04C24.01 203.39 20.57 204.04 20.39 207.25C20.25 209.74 21.67 210.3 23.61 211.13C25.15 211.8 24.96 211.99 24.95 213.84C24.95 217.56 26.2 218.61 29.87 218.01C31.0194 217.681 32.2224 217.583 33.41 217.72C34.82 218.14 34.34 218.49 34.41 219.66C34.51 222.66 38.01 221.82 39.49 220.53C41.2 219.05 43.34 217.33 45.66 217.1C46.5881 217.008 47.5233 217.178 48.36 217.59C49.9311 218.479 51.4085 219.525 52.77 220.71C54.1461 221.897 55.8527 222.633 57.66 222.82C59.47 222.88 61.41 221.76 61.74 219.99C61.7644 219.676 61.8421 219.368 61.97 219.08C62.1483 218.855 62.3951 218.694 62.673 218.622C62.9509 218.55 63.2447 218.57 63.51 218.68C64.0323 218.92 64.5311 219.208 65 219.54C66.82 220.62 69.11 220.37 71.2 220.07C72.95 219.82 75.2 219.07 75.14 217.28C75.14 216.13 74.14 215.28 73.34 214.45C72.54 213.62 71.91 212.28 72.63 211.38C72.9039 211.069 73.2614 210.843 73.66 210.73V210.73Z" fill="#019444"/>
<path d="M40 186.42L50 206.27V197.13L51 158.22L52.48 197.13V203.28L63.48 184.04L52.48 207.66V268C52.4706 268.111 52.4311 268.217 52.3659 268.306C52.3007 268.396 52.2122 268.467 52.11 268.51C51.8361 268.644 51.5351 268.714 51.23 268.714C50.9249 268.714 50.6239 268.644 50.35 268.51C50.2515 268.464 50.1671 268.392 50.1056 268.303C50.044 268.213 50.0076 268.109 50 268V211.33L40 186.42Z" fill="#37474F"/>
<path d="M44.21 272.68C47.07 273.13 49.64 272.34 50.08 269.24C50.44 266.693 50.44 264.107 50.08 261.56C49.95 260.64 49.63 259.56 48.73 259.31C48.3545 259.249 47.9691 259.313 47.6344 259.494C47.2996 259.675 47.0343 259.962 46.88 260.31C46.6054 261.026 46.4994 261.796 46.57 262.56C46.11 261.56 45.44 260.4 44.34 260.37C43.8318 260.425 43.3624 260.667 43.0239 261.05C42.6853 261.433 42.5021 261.929 42.51 262.44C42.5699 263.462 42.8938 264.451 43.45 265.31C43.0727 265.211 42.6789 265.191 42.2934 265.251C41.9079 265.311 41.5391 265.45 41.21 265.66C40.9044 266.009 40.7293 266.452 40.7147 266.916C40.7001 267.379 40.8469 267.833 41.13 268.2C41.7347 268.915 42.508 269.469 43.38 269.81C43.2471 269.752 43.1031 269.723 42.958 269.726C42.8129 269.73 42.6703 269.764 42.5399 269.828C42.4096 269.892 42.2946 269.983 42.2031 270.096C42.1116 270.208 42.0457 270.339 42.01 270.48C41.9547 270.766 41.9806 271.062 42.0849 271.334C42.1892 271.607 42.3676 271.844 42.6 272.02C43.0721 272.373 43.6261 272.6 44.21 272.68V272.68Z" fill="#455A64"/>
<path d="M49.18 273.9C49.18 273.9 54.75 270.69 56.03 269.9C56.6101 269.531 57.1156 269.056 57.52 268.5C57.9421 267.99 58.2277 267.381 58.35 266.73C58.4128 266.503 58.3879 266.26 58.28 266.05C58.03 265.69 57.45 265.82 57.12 266.11C56.7927 266.399 56.4822 266.706 56.19 267.03C56.3232 266.248 56.3668 265.452 56.32 264.66C56.332 264.515 56.3122 264.37 56.2622 264.233C56.2121 264.097 56.1329 263.973 56.03 263.87C55.8847 263.764 55.7097 263.707 55.53 263.707C55.3504 263.707 55.1753 263.764 55.03 263.87C54.1953 264.474 53.6257 265.377 53.44 266.39C53.5928 265.393 53.5623 264.376 53.35 263.39C53.11 262.31 51.87 261.88 51.45 262.91C51.2453 263.466 51.124 264.049 51.09 264.64C51.0192 265.4 51.0699 266.166 51.24 266.91C50.8239 265.942 50.199 265.078 49.41 264.38C49.2847 264.23 49.1205 264.117 48.9353 264.053C48.7502 263.99 48.5512 263.978 48.36 264.02C47.93 264.18 47.85 264.76 47.9 265.22C48.0026 266.197 48.3202 267.14 48.83 267.98C48.1376 267.51 47.3479 267.202 46.52 267.08C46.3894 267.039 46.2494 267.039 46.1189 267.081C45.9884 267.122 45.8737 267.202 45.79 267.31C45.7263 267.468 45.7075 267.64 45.7357 267.808C45.764 267.975 45.8381 268.132 45.95 268.26C46.4397 268.976 47.086 269.571 47.84 270C47.1153 269.779 46.3545 269.701 45.6 269.77C45.4876 269.763 45.3751 269.782 45.2711 269.826C45.1671 269.869 45.0744 269.935 45 270.02C44.8 270.31 45 270.69 45.28 270.93C45.7645 271.323 46.3035 271.643 46.88 271.88C46.5383 271.863 46.197 271.921 45.88 272.05C45.7255 272.117 45.5966 272.232 45.5121 272.378C45.4275 272.524 45.3917 272.693 45.41 272.86C45.4673 273.02 45.5644 273.163 45.6921 273.275C45.8199 273.387 45.974 273.464 46.14 273.5C47.0838 273.957 48.15 274.098 49.18 273.9V273.9Z" fill="#019444"/>
<path d="M27 306.59C27.2652 306.59 27.5196 306.485 27.7071 306.297C27.8947 306.11 28 305.855 28 305.59V109.71C28.1197 107.809 28.6775 105.961 29.6299 104.311C30.5823 102.662 31.9035 101.254 33.49 100.2L49.44 91C50.71 90.26 51.85 90.11 52.65 90.57C53.0992 90.9195 53.4497 91.3799 53.6672 91.9059C53.8846 92.4319 53.9614 93.0054 53.89 93.57V112.66C53.89 112.936 53.9996 113.2 54.1946 113.395C54.3897 113.59 54.6542 113.7 54.93 113.7C55.2058 113.7 55.4704 113.59 55.6654 113.395C55.8604 113.2 55.97 112.936 55.97 112.66V93.55C55.97 91.31 55.16 89.61 53.69 88.76C52.22 87.91 50.34 88.06 48.4 89.18L32.48 98.4C30.577 99.6326 28.996 101.302 27.8689 103.269C26.7417 105.237 26.101 107.445 26 109.71V305.55C25.9946 305.685 26.0165 305.819 26.0643 305.945C26.1122 306.071 26.185 306.186 26.2784 306.283C26.3718 306.38 26.4838 306.458 26.6079 306.51C26.7319 306.563 26.8653 306.59 27 306.59Z" fill="black"/>
<path d="M51.49 108.2C52.6532 107.608 53.9399 107.3 55.245 107.3C56.5501 107.3 57.8368 107.608 59 108.2C59.4277 108.392 59.7967 108.694 60.0691 109.075C60.3415 109.456 60.5075 109.903 60.55 110.37V111.9C60.5055 112.366 60.3387 112.812 60.0666 113.193C59.7944 113.574 59.4265 113.877 59 114.07C57.8368 114.662 56.5501 114.97 55.245 114.97C53.9399 114.97 52.6532 114.662 51.49 114.07C51.061 113.879 50.6905 113.577 50.4164 113.196C50.1423 112.815 49.9744 112.368 49.93 111.9V110.37C49.9734 109.902 50.1409 109.455 50.4151 109.073C50.6893 108.692 51.0604 108.39 51.49 108.2V108.2Z" fill="#455A64"/>
<path d="M51.49 109.73C49.41 110.93 49.41 112.87 51.49 114.07C52.6532 114.662 53.9399 114.97 55.245 114.97C56.5501 114.97 57.8368 114.662 59 114.07C61.07 112.87 61.07 110.93 59 109.73C57.8352 109.144 56.5491 108.838 55.245 108.838C53.9408 108.838 52.6548 109.144 51.49 109.73Z" fill="#37474F"/>
<path d="M50.07 124.47H60.41V112.47C60.3702 112.015 60.209 111.58 59.9434 111.209C59.6778 110.837 59.3175 110.544 58.9 110.36C57.7662 109.783 56.5121 109.482 55.24 109.482C53.9679 109.482 52.7138 109.783 51.58 110.36C51.1625 110.544 50.8022 110.837 50.5366 111.209C50.271 111.58 50.1098 112.015 50.07 112.47V112.47V124.47Z" fill="#1CA84B"/>
<path opacity="0.7" d="M50.07 124.47H60.41V112.47C60.3702 112.015 60.209 111.58 59.9434 111.209C59.6778 110.837 59.3175 110.544 58.9 110.36C57.7662 109.783 56.5121 109.482 55.24 109.482C53.9679 109.482 52.7138 109.783 51.58 110.36C51.1625 110.544 50.8022 110.837 50.5366 111.209C50.271 111.58 50.1098 112.015 50.07 112.47V112.47V124.47Z" fill="white"/>
<path d="M58.9 126.58C60.9 125.42 60.9 123.58 58.9 122.36C57.7662 121.783 56.5121 121.482 55.24 121.482C53.9679 121.482 52.7138 121.783 51.58 122.36C49.58 123.53 49.58 125.42 51.58 126.58C52.7138 127.157 53.9679 127.458 55.24 127.458C56.5121 127.458 57.7662 127.157 58.9 126.58Z" fill="#1CA84B"/>
<path opacity="0.5" d="M58.9 126.58C60.9 125.42 60.9 123.58 58.9 122.36C57.7662 121.783 56.5121 121.482 55.24 121.482C53.9679 121.482 52.7138 121.783 51.58 122.36C49.58 123.53 49.58 125.42 51.58 126.58C52.7138 127.157 53.9679 127.458 55.24 127.458C56.5121 127.458 57.7662 127.157 58.9 126.58Z" fill="white"/>
<path opacity="0.2" d="M52.13 114.16C52.13 113.545 52.3124 112.944 52.6541 112.432C52.9959 111.921 53.4816 111.522 54.0499 111.287C54.6181 111.051 55.2435 110.99 55.8467 111.11C56.45 111.23 57.0042 111.526 57.4391 111.961C57.874 112.396 58.1702 112.95 58.2902 113.553C58.4102 114.157 58.3487 114.782 58.1133 115.35C57.8779 115.918 57.4793 116.404 56.9678 116.746C56.4564 117.088 55.8551 117.27 55.24 117.27C54.4152 117.27 53.6241 116.942 53.0409 116.359C52.4577 115.776 52.13 114.985 52.13 114.16Z" fill="white"/>
<path opacity="0.2" d="M50.07 117.86C50.656 118.686 51.4311 119.359 52.3306 119.823C53.23 120.288 54.2277 120.53 55.24 120.53C56.2524 120.53 57.25 120.288 58.1494 119.823C59.0489 119.359 59.824 118.686 60.41 117.86V112.42C60.3702 111.965 60.209 111.53 59.9434 111.159C59.6778 110.787 59.3175 110.494 58.9 110.31C57.7662 109.733 56.5121 109.432 55.24 109.432C53.9679 109.432 52.7138 109.733 51.58 110.31C51.1625 110.494 50.8022 110.787 50.5366 111.159C50.271 111.53 50.1098 111.965 50.07 112.42V117.86Z" fill="white"/>
<path opacity="0.4" d="M53.8 114.16C53.8 113.875 53.8845 113.597 54.0427 113.36C54.2009 113.123 54.4258 112.939 54.689 112.83C54.9521 112.721 55.2416 112.692 55.521 112.748C55.8003 112.803 56.0569 112.94 56.2583 113.142C56.4596 113.343 56.5968 113.6 56.6524 113.879C56.7079 114.158 56.6794 114.448 56.5704 114.711C56.4614 114.974 56.2768 115.199 56.04 115.357C55.8032 115.516 55.5248 115.6 55.24 115.6C54.8581 115.6 54.4918 115.448 54.2218 115.178C53.9517 114.908 53.8 114.542 53.8 114.16V114.16Z" fill="white"/>
<path d="M51.49 121.85C52.6532 121.258 53.9399 120.95 55.245 120.95C56.5501 120.95 57.8368 121.258 59 121.85C59.425 122.04 59.7922 122.339 60.0644 122.716C60.3366 123.094 60.5041 123.537 60.55 124V125.53C60.5109 126 60.3465 126.451 60.0739 126.837C59.8013 127.222 59.4305 127.527 59 127.72C57.8368 128.312 56.5501 128.62 55.245 128.62C53.9399 128.62 52.6532 128.312 51.49 127.72C51.0604 127.53 50.6893 127.228 50.4151 126.847C50.1409 126.466 49.9734 126.018 49.93 125.55V124C49.9768 123.536 50.1459 123.092 50.4199 122.715C50.6939 122.337 51.0632 122.039 51.49 121.85Z" fill="#455A64"/>
<path d="M51.49 123.38C49.41 124.58 49.41 126.52 51.49 127.72C52.6532 128.312 53.9399 128.62 55.245 128.62C56.5501 128.62 57.8368 128.312 59 127.72C61.07 126.52 61.07 124.58 59 123.38C57.8352 122.794 56.5491 122.488 55.245 122.488C53.9408 122.488 52.6548 122.794 51.49 123.38Z" fill="#37474F"/>
<path d="M274.13 22.8C275.464 23.4567 276.986 23.6231 278.43 23.27C280.13 23.01 282.06 22.74 283.43 23.8C284.053 24.4135 284.619 25.0829 285.12 25.8C286.7 27.61 289.65 26.26 290.98 28.74C291.17 29.09 291.19 30.25 291.66 30.36C292.13 30.47 293.11 29.71 293.61 29.63C295.226 29.4482 296.86 29.5021 298.46 29.79C299.196 29.8916 299.904 30.1395 300.543 30.519C301.182 30.8986 301.739 31.4021 302.18 32C302.61 32.59 303 33.34 303.74 33.5C304.17 33.5519 304.607 33.4826 305 33.3C306.378 32.7523 307.831 32.4152 309.31 32.3C310.037 32.2458 310.765 32.3914 311.415 32.7209C312.066 33.0505 312.614 33.5516 313 34.17C313.09 34.35 313.19 34.57 313.39 34.61C313.59 34.65 313.78 34.49 313.93 34.36C314.461 33.8908 315.097 33.5553 315.784 33.3813C316.471 33.2074 317.19 33.2001 317.88 33.36C318.336 33.4371 318.754 33.662 319.07 34C319.49 34.5 319.5 35.23 319.91 35.74C320.63 36.61 322.05 36.34 323.16 36.03C324.64 35.63 326.36 35.36 327.6 36.25C327.93 36.49 328.2 36.8 328.55 37.02C329.584 37.4762 330.739 37.585 331.84 37.33C332.58 37.26 341.22 37.52 341.1 38.25C340.98 38.98 338.81 38.83 338.32 38.88C337.6 38.94 336.9 39.1 336.17 39.12C335.436 39.045 334.694 39.1026 333.98 39.29C333.53 39.49 333.24 39.87 332.75 40.03C331.599 40.3136 330.388 40.2261 329.29 39.78C328.008 39.1786 326.63 38.8063 325.22 38.68C324.559 38.8097 323.925 39.0462 323.34 39.38C322.078 39.7829 320.726 39.8072 319.45 39.45C318.71 39.27 317.56 38.74 316.77 38.95C316.31 39.07 315.83 39.52 315.36 39.69C314.748 39.9154 314.115 40.0762 313.47 40.17C311.17 40.5 308.9 39.24 306.72 38.71C303.94 38.03 302.4 38.64 300.34 40.28C299.458 40.9505 298.424 41.3927 297.331 41.5672C296.237 41.7417 295.117 41.643 294.07 41.28C293.457 41.0047 292.83 40.7643 292.19 40.56C290.581 40.1308 288.873 40.2649 287.35 40.94C286.495 41.5169 285.567 41.9775 284.59 42.31C281.31 43.08 278.16 39.31 274.94 40.23C273.55 40.66 272.48 41.73 271.15 42.23C269.79 42.6475 268.331 42.6018 267 42.1C265.13 41.5 263.33 40.48 261.37 40.47C260 40.47 258.66 40.95 257.29 40.97C255.92 40.99 254.35 40.3 254.08 38.97C253.023 39.7173 251.797 40.1899 250.512 40.3453C249.228 40.5007 247.924 40.3339 246.72 39.86C246.037 39.494 245.296 39.2471 244.53 39.13C243.42 39.13 242.46 39.83 241.39 40.13C238.79 40.88 236.18 38.99 233.49 38.79C231.843 38.8046 230.205 39.0195 228.61 39.43C227.81 39.6288 226.979 39.6658 226.165 39.5387C225.351 39.4116 224.571 39.1231 223.87 38.69L229.41 37.18C231.65 36.56 234 35.95 236.27 36.44C237.251 36.8138 238.305 36.9575 239.35 36.86C239.995 36.6299 240.604 36.3101 241.16 35.91C242.224 35.3112 243.432 35.0185 244.652 35.0644C245.871 35.1102 247.055 35.4929 248.07 36.17C248.328 35.31 248.769 34.5157 249.362 33.8413C249.955 33.1669 250.686 32.6283 251.506 32.262C252.326 31.8957 253.215 31.7103 254.113 31.7186C255.011 31.7269 255.897 31.9286 256.71 32.31C256.916 31.3924 257.334 30.5361 257.932 29.81C258.529 29.0839 259.289 28.5084 260.15 28.13C261.81 27.37 263.77 28.37 264.07 26.27C264.2 25.3885 264.516 24.5447 264.997 23.7947C265.478 23.0447 266.113 22.4057 266.86 21.92C267.879 21.2681 268.992 20.7758 270.16 20.46C270.559 20.3524 270.978 20.3379 271.384 20.4176C271.789 20.4974 272.171 20.6693 272.5 20.92C272.887 21.3614 273.248 21.8255 273.58 22.31C273.743 22.4945 273.928 22.659 274.13 22.8V22.8Z" fill="#F0F0F0"/>
<path d="M187.36 54.84L187.62 54.97C189 55.6 190.62 55.07 192.12 55.09C193.595 55.1043 195.016 55.6512 196.12 56.63C197.12 57.48 197.83 58.76 198.89 59.48C200.101 60.1099 201.483 60.3309 202.83 60.11C204.188 59.9382 205.565 59.982 206.91 60.24C207.586 60.3882 208.205 60.727 208.694 61.2161C209.183 61.7052 209.522 62.3243 209.67 63C209.901 62.7004 210.209 62.4694 210.562 62.332C210.914 62.1946 211.297 62.1558 211.67 62.22C212.41 62.22 213.13 62.51 213.87 62.49C214.839 62.3447 215.791 62.1001 216.71 61.76C219.14 61.15 221.66 62.07 224.03 62.88C226.4 63.69 229.03 64.41 231.35 63.43C230.466 64.3464 229.386 65.0503 228.191 65.4885C226.996 65.9268 225.717 66.088 224.45 65.96C221.84 65.67 219.12 64.18 216.76 65.33C215.3 66.03 214.09 67.7 212.5 67.33C211.75 67.17 211.15 66.56 210.4 66.38C208.71 65.96 207.24 67.82 205.49 67.91C203.74 68 202.32 66.21 200.58 65.65C197.26 64.65 193.97 68.3 190.53 67.73C188.76 67.44 187.31 66.0499 185.53 65.8399C184.06 65.6699 182.64 66.33 181.22 66.74C178.72 67.45 177.38 65.8 175.05 65.8C173.05 65.8 171.74 67.94 169.82 68.41C167.37 69 165.16 66.75 162.68 66.32C160.97 66.03 159.24 66.62 157.51 66.74C155.447 66.8925 153.389 66.3885 151.63 65.3L162 63.24C162.667 63.1419 163.317 62.95 163.93 62.67C164.53 62.36 165.04 61.88 165.61 61.51C166.472 60.9573 167.464 60.6398 168.486 60.5889C169.509 60.538 170.527 60.7556 171.44 61.22C171.469 59.913 172.008 58.6693 172.943 57.7553C173.877 56.8413 175.133 56.3296 176.44 56.33C176.967 56.4162 177.506 56.3855 178.02 56.24C178.74 55.92 179.02 55.06 179.43 54.4C180.59 52.58 183.84 51.74 185.5 53.22C186.067 53.8183 186.689 54.3608 187.36 54.84V54.84Z" fill="#F0F0F0"/>
<path d="M81.2041 43.6979C87.1088 37.7932 87.1088 28.2197 81.2041 22.315C75.2993 16.4103 65.7259 16.4103 59.8212 22.315C53.9164 28.2197 53.9164 37.7932 59.8212 43.6979C65.7259 49.6027 75.2993 49.6026 81.2041 43.6979Z" fill="#FFBDA7"/>
<path opacity="0.15" d="M214.43 221.41L83.21 297.06C79.93 298.95 79.93 302.06 83.21 303.91L332 447.55C337 450.45 345.24 450.44 350.25 447.55L478.25 373.75C481.94 371.61 481.95 368.12 478.25 365.98L227.88 221.41C225.795 220.355 223.492 219.805 221.155 219.805C218.818 219.805 216.515 220.355 214.43 221.41V221.41Z" fill="black"/>
<path d="M229.62 190.8L480.44 335.62C486.89 339.34 486.82 343.62 486.82 347.37C486.82 351.12 485.11 356.43 480.44 359.13L349.56 434.58C344.89 437.28 337.32 437.28 332.64 434.58L81.82 289.77C77.15 287.07 76.09 282.55 76.09 278.77C76.09 274.99 77.15 268.97 81.82 266.28L212.7 190.8C215.235 189.21 218.167 188.366 221.16 188.366C224.153 188.366 227.085 189.21 229.62 190.8V190.8Z" fill="#37474F"/>
<path d="M223.44 196L89.17 273.43L341.1 418.83V436.6C338.156 436.665 335.244 435.976 332.64 434.6L81.82 289.77C77.15 287.07 76.09 282.55 76.09 278.77C76.09 274.99 77.15 268.97 81.82 266.28L212.7 190.8C215.907 188.818 219.706 188.019 223.44 188.54V196Z" fill="#263238"/>
<path d="M214.43 192.05L83.21 267.71C79.93 269.6 79.93 272.71 83.21 274.56L332 418.2C337 421.09 345.24 421.09 350.25 418.2L478.25 344.39C481.94 342.26 481.95 338.76 478.25 336.63L227.88 192.05C225.793 191.003 223.49 190.458 221.155 190.458C218.82 190.458 216.517 191.003 214.43 192.05V192.05Z" fill="#455A64"/>
<path d="M237.1 201.12L463.64 331.92C467.31 334.04 467.32 337.5 463.64 339.61L339.64 411.13C337.577 412.18 335.295 412.728 332.98 412.728C330.665 412.728 328.383 412.18 326.32 411.13L98 279.31C95 277.59 94.43 274.99 96.31 272.94L96.77 272.47C97.1519 272.148 97.5638 271.863 98 271.62L219.61 201.51L220.27 201.12C224.88 198.44 232.46 198.45 237.1 201.12Z" fill="#FAFAFA"/>
<path d="M146 236L162.95 226.22C163.494 225.928 164.099 225.77 164.717 225.758C165.334 225.745 165.945 225.88 166.5 226.15C167.44 226.7 167.39 227.62 166.38 228.2L149.4 238C148.856 238.292 148.251 238.45 147.633 238.462C147.016 238.475 146.405 238.34 145.85 238.07C144.9 237.48 145 236.56 146 236Z" fill="#263238"/>
<path d="M170.91 220.77C171.549 220.45 172.255 220.283 172.97 220.283C173.685 220.283 174.391 220.45 175.03 220.77C175.281 220.854 175.499 221.014 175.653 221.229C175.807 221.443 175.891 221.701 175.891 221.965C175.891 222.229 175.807 222.487 175.653 222.701C175.499 222.916 175.281 223.076 175.03 223.16C174.391 223.48 173.685 223.647 172.97 223.647C172.255 223.647 171.549 223.48 170.91 223.16C170.659 223.076 170.441 222.916 170.287 222.701C170.133 222.487 170.049 222.229 170.049 221.965C170.049 221.701 170.133 221.443 170.287 221.229C170.441 221.014 170.659 220.854 170.91 220.77V220.77Z" fill="#263238"/>
<path d="M156.33 320.08C157.28 320.675 158.077 321.486 158.656 322.447C159.234 323.408 159.578 324.491 159.66 325.61C159.7 325.987 159.635 326.367 159.473 326.709C159.31 327.052 159.057 327.342 158.74 327.55C158.34 327.78 156.83 328.68 156.41 328.91C156.02 329.079 155.592 329.143 155.169 329.096C154.746 329.048 154.343 328.891 154 328.64L133.57 316.84C132.618 316.245 131.82 315.434 131.24 314.474C130.66 313.513 130.314 312.429 130.23 311.31C130.195 310.947 130.255 310.581 130.404 310.248C130.553 309.915 130.786 309.626 131.08 309.41C131.49 309.15 133.08 308.24 133.48 308C133.872 307.835 134.3 307.775 134.722 307.824C135.144 307.873 135.546 308.03 135.89 308.28L156.33 320.08Z" fill="#455A64"/>
<path d="M154 321.42L133.57 309.62C131.73 308.56 130.23 309.31 130.23 311.31C130.314 312.429 130.66 313.513 131.24 314.474C131.82 315.434 132.618 316.245 133.57 316.84L154 328.64C155.84 329.7 157.34 328.95 157.34 326.95C157.256 325.831 156.91 324.747 156.33 323.786C155.75 322.826 154.952 322.015 154 321.42Z" fill="#37474F"/>
<path d="M120.56 299.42C121.511 300.018 122.307 300.83 122.886 301.793C123.464 302.755 123.808 303.84 123.89 304.96C123.93 305.337 123.865 305.717 123.703 306.059C123.54 306.402 123.287 306.692 122.97 306.9C122.57 307.12 121.06 308.03 120.64 308.26C120.249 308.427 119.822 308.49 119.399 308.443C118.977 308.395 118.574 308.239 118.23 307.99L97.8 296.19C96.8481 295.593 96.0499 294.78 95.4697 293.818C94.8895 292.856 94.5437 291.771 94.46 290.65C94.4263 290.287 94.4869 289.921 94.6358 289.589C94.7847 289.256 95.0169 288.967 95.31 288.75C95.72 288.49 97.31 287.58 97.71 287.35C98.1008 287.183 98.5282 287.12 98.9506 287.167C99.3729 287.215 99.7758 287.371 100.12 287.62L120.56 299.42Z" fill="#455A64"/>
<path d="M118.23 300.77L97.8 289C95.95 287.94 94.46 288.69 94.46 290.68C94.5413 291.801 94.8862 292.887 95.4666 293.85C96.047 294.813 96.8465 295.625 97.8 296.22L118.23 308C120.07 309.06 121.57 308.3 121.57 306.31C121.488 305.189 121.143 304.103 120.562 303.141C119.982 302.178 119.183 301.366 118.23 300.77V300.77Z" fill="#37474F"/>
<path d="M191.21 268.82C189.46 267.82 185.72 268.33 182.86 269.98C180 271.63 179.09 273.79 180.86 274.8C182.63 275.81 186.35 275.29 189.21 273.64C192.07 271.99 193 269.83 191.21 268.82ZM261.31 246.67L246.05 266.24L291.57 265.24L306.82 245.68L261.31 246.67ZM207.18 249.28L194.8 265.39C195.923 265.649 196.904 266.329 197.54 267.29L239.1 266.39L253.31 248.27L207.18 249.28ZM312.47 249L299.83 265.2L327.24 257.48L312.47 249ZM333 260.77L295 271.45L252 326.58C266.86 322.26 278.71 321.23 290.42 323.64L337.17 263.2L333 260.77ZM195.48 272.92C193.48 275.37 191.54 276.14 187.14 277.58L201.14 304.58L262 303.21L286.92 270.93L195.48 272.92ZM198.08 310.65L182.91 323.65L215.81 342.65C223.838 337.79 232.265 333.622 241 330.19L257.23 309.37L198.08 310.65ZM239.79 207L211.54 243.68L300 241.75L239.79 207ZM342.1 266.06L295.91 324.57L299.21 325.13L371.82 283.21L342.1 266.06ZM178.88 279C178.075 278.831 177.306 278.519 176.61 278.08L136.08 296.6L178 320.76L193.18 307.76L178.88 279ZM285 329C266.73 325.9 243.29 331.71 220 345.1L242.37 358L290.83 330L285 329ZM234.9 204.19C231.16 202.06 224.24 202.55 219.49 205.29L218.81 205.69L150.78 245L205.41 243.82L235.61 204.6L234.9 204.19ZM140.53 250.88L105.53 271.09C105.078 271.343 104.647 271.63 104.24 271.95C104.06 272.1 103.9 272.25 103.73 272.41C101.61 274.41 101.65 276.75 104.05 278.13L130.89 293.63L174.32 273.74C174.98 271.96 176.56 270.12 179.98 268.13C182.753 266.587 185.787 265.57 188.93 265.13L201 249.42L140.53 250.88Z" fill="#019444"/>
<path opacity="0.6" d="M191.21 268.82C189.46 267.82 185.72 268.33 182.86 269.98C180 271.63 179.09 273.79 180.86 274.8C182.63 275.81 186.35 275.29 189.21 273.64C192.07 271.99 193 269.83 191.21 268.82ZM261.31 246.67L246.05 266.24L291.57 265.24L306.82 245.68L261.31 246.67ZM207.18 249.28L194.8 265.39C195.923 265.649 196.904 266.329 197.54 267.29L239.1 266.39L253.31 248.27L207.18 249.28ZM312.47 249L299.83 265.2L327.24 257.48L312.47 249ZM333 260.77L295 271.45L252 326.58C266.86 322.26 278.71 321.23 290.42 323.64L337.17 263.2L333 260.77ZM195.48 272.92C193.48 275.37 191.54 276.14 187.14 277.58L201.14 304.58L262 303.21L286.92 270.93L195.48 272.92ZM198.08 310.65L182.91 323.65L215.81 342.65C223.838 337.79 232.265 333.622 241 330.19L257.23 309.37L198.08 310.65ZM239.79 207L211.54 243.68L300 241.75L239.79 207ZM342.1 266.06L295.91 324.57L299.21 325.13L371.82 283.21L342.1 266.06ZM178.88 279C178.075 278.831 177.306 278.519 176.61 278.08L136.08 296.6L178 320.76L193.18 307.76L178.88 279ZM285 329C266.73 325.9 243.29 331.71 220 345.1L242.37 358L290.83 330L285 329ZM234.9 204.19C231.16 202.06 224.24 202.55 219.49 205.29L218.81 205.69L150.78 245L205.41 243.82L235.61 204.6L234.9 204.19ZM140.53 250.88L105.53 271.09C105.078 271.343 104.647 271.63 104.24 271.95C104.06 272.1 103.9 272.25 103.73 272.41C101.61 274.41 101.65 276.75 104.05 278.13L130.89 293.63L174.32 273.74C174.98 271.96 176.56 270.12 179.98 268.13C182.753 266.587 185.787 265.57 188.93 265.13L201 249.42L140.53 250.88Z" fill="white"/>
<path d="M114.59 158V153.8C114.656 148.319 115.57 142.881 117.3 137.68C121.7 124.05 130.96 111.04 141.68 104.86C148.5 100.92 154.68 100.43 159.49 102.8L150.11 97.4C147.797 95.8755 145.08 95.0811 142.31 95.12C141.869 95.1155 141.429 95.1355 140.99 95.18C140.534 95.2043 140.079 95.2577 139.63 95.34C139.161 95.3918 138.696 95.4787 138.24 95.6C137.77 95.7 137.24 95.83 136.81 95.97C135.81 96.2764 134.828 96.6403 133.87 97.06C133.37 97.28 132.87 97.53 132.36 97.77C131.85 98.01 131.36 98.31 130.83 98.6C115.83 107.24 103.76 129.16 103.76 147.6V151.79C103.76 170.2 128.51 190.2 128.51 190.2L138.51 195.86C138.329 195.752 138.158 195.629 138 195.49C130.64 188.63 114.59 172.19 114.59 158ZM144.14 119.3C144.233 119.765 144.293 120.236 144.32 120.71C144.32 120.86 144.32 121.02 144.32 121.2C144.335 121.48 144.335 121.76 144.32 122.04C144.32 130.66 138.26 141.17 130.77 145.49C130.5 145.64 130.23 145.79 129.96 145.92C129.69 146.05 129.42 146.18 129.16 146.3L128.38 146.62H128.3C129.47 153.22 134.97 155.53 141.62 151.71C149.09 147.39 155.15 136.89 155.15 128.25C155.21 120.65 150.44 117 144.14 119.32V119.3Z" fill="#019444"/>
<path opacity="0.2" d="M114.59 158V153.8C114.656 148.319 115.57 142.881 117.3 137.68C121.7 124.05 130.96 111.04 141.68 104.86C148.5 100.92 154.68 100.43 159.49 102.8L150.11 97.4C147.797 95.8755 145.08 95.0811 142.31 95.12C141.869 95.1155 141.429 95.1355 140.99 95.18C140.534 95.2043 140.079 95.2577 139.63 95.34C139.161 95.3918 138.696 95.4787 138.24 95.6C137.77 95.7 137.24 95.83 136.81 95.97C135.81 96.2764 134.828 96.6403 133.87 97.06C133.37 97.28 132.87 97.53 132.36 97.77C131.85 98.01 131.36 98.31 130.83 98.6C115.83 107.24 103.76 129.16 103.76 147.6V151.79C103.76 170.2 128.51 190.2 128.51 190.2L138.51 195.86C138.329 195.752 138.158 195.629 138 195.49C130.64 188.63 114.59 172.19 114.59 158Z" fill="black"/>
<path opacity="0.5" d="M144.14 119.32C144.233 119.785 144.293 120.256 144.32 120.73C144.32 120.88 144.32 121.04 144.32 121.22C144.335 121.5 144.335 121.78 144.32 122.06C144.32 130.68 138.26 141.19 130.77 145.51C130.5 145.66 130.23 145.81 129.96 145.94C129.69 146.07 129.42 146.2 129.16 146.32L128.38 146.64H128.3C129.47 153.24 134.97 155.55 141.62 151.73C149.09 147.41 155.15 136.91 155.15 128.27C155.21 120.65 150.44 117 144.14 119.32Z" fill="black"/>
<path d="M168.75 122.55C168.75 104.15 156.62 96.22 141.67 104.86C126.72 113.5 114.59 135.41 114.59 153.86V158C114.59 172.18 130.65 188.63 138.03 195.44C138.447 195.827 138.949 196.111 139.496 196.27C140.043 196.428 140.619 196.457 141.179 196.353C141.739 196.249 142.266 196.015 142.72 195.671C143.173 195.327 143.54 194.881 143.79 194.37C150.17 181.31 168.79 141.98 168.79 126.73L168.75 122.55ZM141.67 151.76C134.19 156.08 128.13 152.58 128.13 143.94C128.13 135.3 134.19 124.81 141.67 120.49C149.15 116.17 155.21 119.67 155.21 128.31C155.21 136.95 149.15 147.44 141.67 151.76V151.76Z" fill="#019444"/>
<path d="M159.49 102.8L150.11 97.4C147.797 95.8755 145.08 95.0811 142.31 95.12C141.869 95.1155 141.429 95.1355 140.99 95.18C140.534 95.2043 140.079 95.2577 139.63 95.34C139.161 95.3918 138.696 95.4787 138.24 95.6C137.77 95.7 137.24 95.83 136.81 95.97C135.81 96.2764 134.828 96.6403 133.87 97.06C133.37 97.28 132.87 97.53 132.36 97.77C131.85 98.01 131.36 98.31 130.83 98.6C120.72 104.44 111.91 116.36 107.26 129.16L118.09 135.41C122.74 122.62 131.56 110.7 141.68 104.86C148.5 100.92 154.73 100.43 159.49 102.8Z" fill="#019444"/>
<path opacity="0.3" d="M159.49 102.8L150.11 97.4C147.797 95.8755 145.08 95.0811 142.31 95.12C141.869 95.1155 141.429 95.1355 140.99 95.18C140.534 95.2043 140.079 95.2577 139.63 95.34C139.161 95.3918 138.696 95.4787 138.24 95.6C137.77 95.7 137.24 95.83 136.81 95.97C135.81 96.2764 134.828 96.6403 133.87 97.06C133.37 97.28 132.87 97.53 132.36 97.77C131.85 98.01 131.36 98.31 130.83 98.6C120.72 104.44 111.91 116.36 107.26 129.16L118.09 135.41C122.74 122.62 131.56 110.7 141.68 104.86C148.5 100.92 154.73 100.43 159.49 102.8Z" fill="white"/>
<path d="M141.68 104.86L140.08 105.96C139.533 106.307 139.005 106.684 138.5 107.09C137.5 107.92 136.44 108.67 135.5 109.59C134.56 110.51 133.59 111.33 132.73 112.3L131.4 113.71L130.16 115.2C123.584 123.21 118.849 132.567 116.29 142.61C115.95 143.86 115.75 145.14 115.48 146.4C115.21 147.66 115.13 148.96 114.94 150.24C114.75 151.52 114.75 152.82 114.69 154.12L114.6 158L114.49 154.11C114.49 152.81 114.49 151.5 114.54 150.2C114.59 148.9 114.77 147.59 114.96 146.3C115.15 145.01 115.35 143.72 115.66 142.45C117.996 132.212 122.802 122.702 129.66 114.75C133.054 110.772 137.123 107.424 141.68 104.86Z" fill="#019444"/>
<g opacity="0.5">
<path d="M141.68 104.86L140.08 105.96C139.533 106.307 139.005 106.684 138.5 107.09C137.5 107.92 136.44 108.67 135.5 109.59C134.56 110.51 133.59 111.33 132.73 112.3L131.4 113.71L130.16 115.2C123.584 123.21 118.849 132.567 116.29 142.61C115.95 143.86 115.75 145.14 115.48 146.4C115.21 147.66 115.13 148.96 114.94 150.24C114.75 151.52 114.75 152.82 114.69 154.12L114.6 158L114.49 154.11C114.49 152.81 114.49 151.5 114.54 150.2C114.59 148.9 114.77 147.59 114.96 146.3C115.15 145.01 115.35 143.72 115.66 142.45C117.996 132.212 122.802 122.702 129.66 114.75C133.054 110.772 137.123 107.424 141.68 104.86Z" fill="white"/>
</g>
<path d="M20.29 392.59L138.29 460.79C154.203 469.973 172.252 474.807 190.625 474.807C208.998 474.807 227.047 469.973 242.96 460.79L333.73 408.28L248.13 358.78L212.59 379.45C205.912 383.307 198.337 385.337 190.625 385.337C182.913 385.337 175.338 383.307 168.66 379.45L105.89 343.16C90.89 334.51 66.43 334.5 51.46 343.16L20.28 361.16C5.33001 369.79 5.33001 383.94 20.29 392.59Z" fill="#E0E0E0"/>
<path d="M239 410.11L224.72 418.35C221.727 420.082 218.608 421.586 215.39 422.85L220.23 426.96C223.878 425.524 227.414 423.819 230.81 421.86L245.09 413.62L239 410.11Z" fill="#FAFAFA"/>
<path d="M287.88 381.79L269.93 392.21L276.01 395.72L293.96 385.31L287.88 381.79Z" fill="#FAFAFA"/>
<path d="M152.08 415.79L146 419.3L150.43 421.86C157.861 426.133 165.936 429.173 174.34 430.86L177.2 426.18C169.928 424.688 162.944 422.031 156.52 418.31L152.08 415.79Z" fill="#FAFAFA"/>
<path d="M78.16 373.1L54.7 359.56L48.61 363.07L72.08 376.62L78.16 373.1Z" fill="#FAFAFA"/>
<path d="M91.25 387.69L114.71 401.24L120.8 397.73L97.33 384.18L91.25 387.69Z" fill="#FAFAFA"/>
<path opacity="0.15" d="M67.75 345.68L22.87 371.68C16.54 375.35 16.54 381.28 22.87 384.93L107.36 433.58C139.05 451.93 200.65 408.58 175.26 394.39L90.69 345.67C84.36 342 74.08 342 67.75 345.68Z" fill="black"/>
<path d="M64.53 320.6C68.1096 319.477 71.8835 319.111 75.6122 319.524C79.3409 319.937 82.943 321.121 86.19 323C88.69 324.4 93.74 327.34 100 331C104.887 335.896 110.446 340.071 116.51 343.4C134 352.51 145.79 358 145.79 358C145.462 358.264 145.09 358.467 144.69 358.6C139.49 360.7 127.19 372.03 118.69 369.01C108.85 365.46 64.53 320.6 64.53 320.6Z" fill="#019444"/>
<path opacity="0.2" d="M138.49 354.74C138.49 354.74 117.75 345.65 114.84 343.83C112.57 342.45 110.425 340.874 108.43 339.12C107.43 338.19 107.7 341.31 112.8 344.12C119.66 348 138.49 354.74 138.49 354.74Z" fill="white"/>
<path d="M107.24 333C107.24 333.9 107.16 335.14 107.07 336.77C106.866 338.529 107.299 340.303 108.29 341.77C109.155 343.032 110.297 344.079 111.63 344.83C121.89 351.1 145.79 358 145.79 358L144.7 358.6L116.17 355.41L103.74 347.25L103.46 333.81L105.38 332.81L107.24 333Z" fill="#37474F"/>
<path d="M103.45 333.78V334.46C103.668 335.239 104.114 335.935 104.73 336.46C105.048 336.657 105.416 336.761 105.79 336.76C106.47 336.76 107.07 336.41 107.1 335.85V335.4C107.16 334.34 107.19 333.63 107.19 332.99L105.33 332.78L103.45 333.78Z" fill="#019444"/>
<path opacity="0.3" d="M103.45 333.78V334.46C103.668 335.239 104.114 335.935 104.73 336.46C105.048 336.657 105.416 336.761 105.79 336.76C106.47 336.76 107.07 336.41 107.1 335.85V335.4C107.16 334.34 107.19 333.63 107.19 332.99L105.33 332.78L103.45 333.78Z" fill="black"/>
<path d="M60.08 324.8C62.14 319.93 65.92 319.94 72.15 320.8C72.87 320.9 88.78 324.23 97.68 327.64C104.41 330.21 106.39 332.16 106.93 332.47C108.17 333.19 106.11 334.38 104.74 333.73C104.74 334.79 104.74 335.73 104.74 336.5C104.91 341.32 105.74 342.05 108.02 344.65C109.02 345.72 111.82 347.16 113.38 348.03C116.28 349.67 116.14 348.39 123.86 351.37C127.17 352.64 143.07 358.61 144.77 358.59L102.46 385.09L89.1 395.09L27.67 346.05L60.08 324.8Z" fill="#019444"/>
<path d="M104.67 333.71L99.72 330.38L58.9 352.66L65.41 356.41L65.4 381.58L104.67 358.9V333.71Z" fill="#019444"/>
<path opacity="0.25" d="M104.67 333.71L99.72 330.38L57.75 351.18L47.35 352.55L50.04 360.85L65.4 381.58L104.67 358.9V333.71Z" fill="black"/>
<path opacity="0.2" d="M93.25 326.57C96.52 327.57 98.72 328.2 97.9 328.65C97.08 329.1 76.1 323.37 72 322.65C67.9 321.93 64.73 321.58 69.82 320.45C74.36 319.45 77.27 319.76 79.98 320.7C82.6523 321.797 85.2599 323.046 87.79 324.44C87.79 324.44 74.68 321.21 74.18 321.14C73.68 321.07 72.45 321.14 75.53 322.01C78.61 322.88 90 325.57 93.25 326.57Z" fill="white"/>
<path opacity="0.3" d="M115.38 372.19C115.38 372.19 114.72 358.67 114.23 348.5C117.5 350.18 116.78 348.64 123.79 351.34C126.67 352.46 139.11 357.13 143.39 358.34L144.7 358.61L119.87 374.15L115.38 372.19Z" fill="black"/>
<path d="M21.21 369.43L37.87 359.81L28.61 354.47L19.61 360.15L21.21 369.43Z" fill="#019444"/>
<path opacity="0.45" d="M21.21 369.43L37.87 359.81L28.61 354.47L19.61 360.15L21.21 369.43Z" fill="black"/>
<path d="M28.23 367.14L25.84 362.39L31.53 359.1C33.34 358.1 35.75 358.18 38.4 359.7C44 363 48.58 371.32 48.58 378.4C48.58 382.11 47.33 384.72 45.33 385.91H45.25L39.41 389.27L36.89 384.27C32.11 380.67 28.42 373.46 28.23 367.14Z" fill="#37474F"/>
<path d="M28.23 367.14L25.84 362.39L31.53 359.1C33.34 358.1 35.75 358.18 38.4 359.7C44 363 48.58 371.32 48.58 378.4C48.58 382.11 47.33 384.72 45.33 385.91H45.25L39.41 389.27L36.89 384.27C32.11 380.67 28.42 373.46 28.23 367.14Z" fill="#263238"/>
<path d="M22.3 370.07C22.4247 373.299 23.1899 376.471 24.5513 379.401C25.9127 382.332 27.843 384.962 30.23 387.14C30.23 387.14 30.23 387.14 30.23 387.14C30.9205 387.743 31.6672 388.279 32.46 388.74C38.08 391.99 42.64 388.88 42.63 381.8C42.4085 376.06 40.1829 370.579 36.34 366.31V366.31C35.2209 365.068 33.9234 364 32.49 363.14C26.86 359.88 22.3 363 22.3 370.07Z" fill="#37474F"/>
<path d="M32.48 367.4C28.9 365.33 26 367.48 26 372.2C26 376.92 28.9 382.42 32.48 384.49C36.06 386.56 39 384.4 39 379.68C39 374.96 36.05 369.46 32.48 367.4Z" fill="#455A64"/>
<path d="M29.56 374.61C29.79 376.96 31.28 379.46 32.89 380.19C33.1626 380.347 33.4762 380.419 33.79 380.396C34.1038 380.372 34.4035 380.256 34.65 380.06C34.9826 379.685 35.2228 379.237 35.3513 378.753C35.4798 378.268 35.493 377.76 35.39 377.27C35.17 374.92 33.68 372.42 32.07 371.69C31.7031 371.503 31.2846 371.443 30.88 371.52V371.52C30 371.75 29.4 372.9 29.56 374.61Z" fill="#FAFAFA"/>
<path d="M30.14 374.31C30.37 376.66 31.86 379.16 33.47 379.9C33.8358 380.079 34.2497 380.135 34.65 380.06C34.9826 379.685 35.2228 379.237 35.3513 378.753C35.4798 378.268 35.493 377.76 35.39 377.27C35.17 374.92 33.68 372.42 32.07 371.69C31.7031 371.503 31.2845 371.443 30.88 371.52V371.52C30.5487 371.896 30.3094 372.343 30.181 372.828C30.0526 373.312 30.0385 373.819 30.14 374.31V374.31Z" fill="#E0E0E0"/>
<path d="M22.3 370.07C22.4247 373.299 23.1899 376.471 24.5513 379.401C25.9127 382.332 27.843 384.962 30.23 387.14C27.0802 383.573 24.861 379.282 23.77 374.65C22.91 370.57 23.24 364.71 26.77 363.23C30.3 361.75 34.89 364.87 36.36 366.29C35.2409 365.048 33.9434 363.98 32.51 363.12C26.86 359.88 22.3 363 22.3 370.07Z" fill="#455A64"/>
<path d="M19.54 346.34C21.6 341.47 30.21 336.4 33.88 338.24C35.02 338.81 38.27 340.78 42.37 343.14C42.37 343.14 55.83 351.29 57.08 352C57.08 352 50.64 351.9 49.18 352.43C48.9663 352.482 48.7661 352.579 48.5927 352.715C48.4194 352.85 48.2769 353.021 48.1748 353.216C48.0726 353.411 48.0131 353.625 48.0002 353.845C47.9873 354.065 48.0213 354.284 48.1 354.49L48.84 356.88C50.51 365 63.2 368.37 65.9 371.39C66.8391 372.369 67.9511 373.166 69.18 373.74C70.73 374.63 80.36 380.01 81.74 380.81C84.21 382.23 88.22 384.05 88.22 384.05V408.05L45.9 383.74C45.8991 383.072 45.8624 382.404 45.79 381.74C45 374 39.33 365 33.21 361.42C26.57 357.59 21.21 361.17 21.21 369.42L20.14 368.8C16.28 366.5 17.48 351.21 19.54 346.34Z" fill="#019444"/>
<path d="M43 352.11C45.6 352.11 45.71 353.46 46.56 356.11C47.22 358.21 48.25 360.11 47 359.47C45.75 358.83 41.41 354.22 40.61 353.42C39 351.79 41.82 352.11 43 352.11Z" fill="black"/>
<path d="M30.35 338C31.5211 337.663 32.7715 337.73 33.9 338.19C35.04 338.76 38.29 340.73 42.39 343.09L47.9 346.26L77.29 329.34C77.29 329.34 65.89 323.52 61.84 321.96C57.79 320.4 31.5 335 30.35 338Z" fill="#019444"/>
<path opacity="0.2" d="M87.45 385.6L64.76 372.6C64.5308 372.776 64.3487 373.006 64.2301 373.269C64.1114 373.533 64.0599 373.822 64.08 374.11L87.45 385.6Z" fill="white"/>
<path d="M68.12 377.78C68.1412 377.792 68.1652 377.799 68.1897 377.799C68.2142 377.799 68.2382 377.792 68.2595 377.78C68.2807 377.768 68.2984 377.751 68.3108 377.73C68.3232 377.708 68.3298 377.684 68.33 377.66V377C68.33 376.51 67.59 375.69 66.69 375.17L65.35 374.39C64.45 373.87 63.72 373.85 63.72 374.39V374.92C63.7181 375.028 63.7459 375.135 63.8006 375.228C63.8553 375.322 63.9347 375.399 64.03 375.45L68.12 377.78Z" fill="#37474F"/>
<path opacity="0.2" d="M52 365.12C53.17 365.99 59.8 369.95 60.72 370.53C60.1835 371.051 59.7848 371.697 59.56 372.41C59.56 372.41 36.02 358.82 30.27 353.73C24.52 348.64 21.37 343.9 25.8 341.43C27.15 340.68 28.41 339.68 30.04 340.28C30.158 340.324 30.2692 340.385 30.37 340.46C30.5112 340.629 30.6044 340.833 30.64 341.05C31.94 346.11 36.08 349.9 39.43 353.73C43.2571 357.909 47.4653 361.722 52 365.12V365.12Z" fill="white"/>
<path opacity="0.15" d="M95.33 329C95.33 329 67.43 321.14 65.45 322.31C63.47 323.48 89.82 335.11 89.82 335.11L95.33 329Z" fill="black"/>
<path opacity="0.15" d="M84.78 401.91C85.78 402.44 85.98 400.3 86.55 396.13C86.9251 392.432 87.0954 388.717 87.06 385C87.75 388.12 87.46 395.69 87.06 400.53C86.66 405.37 85.75 404.93 84.78 404.21L62.3 390.4L84.78 401.91Z" fill="black"/>
<path opacity="0.15" d="M63.35 371.6C62.3998 373.013 61.9461 374.701 62.06 376.4C62.06 380.4 62.06 389.75 62.06 389.75C62.06 389.75 61.32 379.29 60.88 376.01C60.7186 375.117 60.7437 374.2 60.9536 373.317C61.1636 372.435 61.5539 371.605 62.1 370.88L63.35 371.6Z" fill="black"/>
<path opacity="0.15" d="M37.87 364C38.1233 362.644 38.5926 361.337 39.26 360.13C40.07 359.07 44.38 358.54 44.38 358.54C44.38 358.54 41 359.71 40.06 360.7C39.2326 361.732 38.4997 362.837 37.87 364V364Z" fill="black"/>
<path opacity="0.15" d="M25.3 360.16C25.3 360.16 21 357.7 20.08 356.08C19.16 354.46 18.76 349.08 18.76 349.08C18.76 349.08 18.39 355.26 19.47 356.74C20.55 358.22 25.3 360.16 25.3 360.16Z" fill="black"/>
<path d="M35.64 347.52C39.28 344.03 43.73 341.52 48 338.87C52.27 336.22 56.48 333.69 60.78 331.2C64.31 329.14 67.87 327.1 71.53 325.28C72.5026 324.771 73.5044 324.321 74.53 323.93C74.6562 323.873 74.7866 323.826 74.92 323.79V323.79C75.43 323.63 76.07 323.44 76.81 323.25C81.9865 321.873 87.3363 321.26 92.69 321.43C97.62 321.74 122.54 333.65 125.29 336.84C126.572 338.285 127.78 339.793 128.91 341.36C128.91 341.36 125.51 338.74 123.84 339.36C122.5 339.85 112.84 348.53 106.39 351.96C98.72 356 88 360 85.39 361.24C82.78 362.48 84.39 365.66 84.39 365.66C83.5231 364.032 82.3755 362.569 81 361.34C78.27 359 67.12 353.21 67 353.12C65.4474 352.319 63.7441 351.852 62 351.75L50.39 352.11L37.13 349.28C36.4229 349.264 35.7328 349.06 35.13 348.69C35 348.27 35.31 347.83 35.64 347.52Z" fill="#019444"/>
<path opacity="0.15" d="M82.38 362.27C78.9754 359.527 75.3648 357.049 71.58 354.86C65.06 351.04 63.36 350.35 56.63 350.32C51.49 350.32 46.35 350.46 41.21 350.5C40.9778 350.52 40.7442 350.482 40.53 350.39C40.4235 350.34 40.3408 350.25 40.2996 350.14C40.2585 350.03 40.2622 349.907 40.31 349.8C40.4058 349.677 40.5394 349.589 40.69 349.55C44.24 348.3 49.82 347.87 53.18 346.16C56.06 344.7 58.88 343.09 61.69 341.49C69.42 337.08 76.69 332.9 84.38 327.79C91.53 323.02 92.59 321.54 95.5 322.05C103.65 324.6 122.95 334.05 125.35 336.82V338.22L124.19 339.22C124.091 339.229 123.994 339.249 123.9 339.28C122.69 339.73 114.68 346.89 108.35 350.79C107.72 351.16 107.09 351.53 106.45 351.88C99.79 355.39 90.94 358.88 86.92 360.55C84.18 361.63 82.38 362.27 82.38 362.27Z" fill="white"/>
<path opacity="0.15" d="M40.28 349.15C42.3358 348.922 44.3785 348.588 46.4 348.15C48.7376 347.782 51.017 347.11 53.18 346.15C56.06 344.69 58.88 343.08 61.69 341.48C69.42 337.07 76.69 332.89 84.38 327.78C91.53 323.02 92.59 321.53 95.5 322.04C94.6086 321.73 93.6868 321.515 92.75 321.4C86.7444 321.231 80.7508 322.031 75 323.77C73.813 324.184 72.6597 324.689 71.55 325.28C67.89 327.1 64.33 329.14 60.8 331.2C56.5 333.69 52.24 336.26 48.02 338.87C43.8 341.48 39.3 344.03 35.66 347.52C35.33 347.83 34.98 348.27 35.15 348.69C36.1903 349.237 37.3761 349.443 38.54 349.28C39.11 349.25 39.7 349.21 40.28 349.15Z" fill="black"/>
<path d="M43.86 347.49C48.7749 346.625 53.4874 344.859 57.76 342.28C60.86 340.49 75.43 331.63 80.76 328.54C86.09 325.45 87.66 323.95 84.99 323.85C82.8989 323.966 80.8177 324.22 78.76 324.61C75.8054 325.081 72.9739 326.135 70.43 327.71C63.43 331.71 57 335.71 47.98 340.94C33.13 349.51 37.73 348.48 43.86 347.49Z" fill="#37474F"/>
<path d="M48.11 357.25C48.84 359.99 49.37 361.09 51.27 362.65C55.07 365.77 65.04 371.86 65.81 372.35C66.58 372.84 66.75 372.94 67.38 373.35L83.65 382.74C83.65 382.74 94.71 388.42 94.31 386.33C93.91 384.24 86.55 369.08 85.25 366.33C83.95 363.58 83.54 361.74 80.87 360.25C78.2 358.76 69.1 353.39 67.38 352.37C67.24 352.28 67.1 352.21 66.95 352.13C64.6572 350.941 62.0726 350.431 59.5 350.66C56.25 350.81 49.18 350.9 47.42 351.99C46.32 352.68 47.25 354 48.11 357.25ZM65.59 369.12V355.06C65.59 354.75 65.59 354.48 65.59 354.27C65.5982 354.169 65.6319 354.072 65.6879 353.987C65.7439 353.903 65.8204 353.834 65.9103 353.787C66.0002 353.74 66.1005 353.716 66.2019 353.719C66.3033 353.721 66.4024 353.749 66.49 353.8V353.8C68.22 354.8 77.13 359.8 80.01 361.44C81.32 362.18 82.3 363.85 83.3 366.28C84.3 368.71 89.73 380.09 91.65 384.83C91.59 384.83 82.41 380.55 76.2 376.83C71.36 373.96 68.14 372.33 66.9 371.56C66.469 371.324 66.1157 370.967 65.8832 370.534C65.6507 370.101 65.5488 369.61 65.59 369.12V369.12ZM62.06 352.3C63.53 352.55 63.98 353.3 63.92 355.06C63.92 358.46 63.92 364.49 63.92 367.36C63.92 368.5 63.7 369.43 62.66 368.73C60 367 52.83 362.5 51.56 361.48C49.93 360.15 48.74 354.68 48.43 353.36C48 351.7 60.24 352 62.06 352.3Z" fill="#263238"/>
<path d="M66.94 371.6C68.18 372.37 71.4 374 76.24 376.87C82.45 380.56 91.63 384.81 91.69 384.87C89.77 380.13 84.35 368.74 83.34 366.32C82.33 363.9 81.34 362.22 80.05 361.48C77.17 359.87 68.26 354.86 66.53 353.84C66.4424 353.789 66.3433 353.761 66.2419 353.759C66.1405 353.756 66.0402 353.78 65.9503 353.827C65.8604 353.874 65.7839 353.942 65.7279 354.027C65.6719 354.112 65.6382 354.209 65.63 354.31C65.63 354.52 65.63 354.79 65.63 355.1V369.16C65.5888 369.65 65.6907 370.141 65.9232 370.574C66.1558 371.007 66.509 371.364 66.94 371.6V371.6Z" fill="#263238"/>
<path d="M48.43 353.36C48.74 354.68 49.93 360.15 51.56 361.48C52.83 362.48 60.02 366.98 62.67 368.73C63.67 369.43 63.93 368.5 63.93 367.36C63.93 364.49 63.93 358.46 63.93 355.06C63.99 353.26 63.54 352.55 62.07 352.3C60.24 352 48 351.7 48.43 353.36Z" fill="#263238"/>
<path opacity="0.35" d="M66.94 371.6C68.18 372.37 71.4 374 76.24 376.87C82.45 380.56 91.63 384.81 91.69 384.87C89.77 380.13 84.35 368.74 83.34 366.32C82.33 363.9 81.34 362.22 80.05 361.48C77.17 359.87 68.26 354.86 66.53 353.84C66.4424 353.789 66.3433 353.761 66.2419 353.759C66.1405 353.756 66.0402 353.78 65.9503 353.827C65.8604 353.874 65.7839 353.942 65.7279 354.027C65.6719 354.112 65.6382 354.209 65.63 354.31C65.63 354.52 65.63 354.79 65.63 355.1V369.16C65.5888 369.65 65.6907 370.141 65.9232 370.574C66.1558 371.007 66.509 371.364 66.94 371.6V371.6Z" fill="black"/>
<path opacity="0.35" d="M48.43 353.36C48.74 354.68 49.93 360.15 51.56 361.48C52.83 362.48 60.02 366.98 62.67 368.73C63.67 369.43 63.93 368.5 63.93 367.36C63.93 364.49 63.93 358.46 63.93 355.06C63.99 353.26 63.54 352.55 62.07 352.3C60.24 352 48 351.7 48.43 353.36Z" fill="black"/>
<path d="M96.38 385.37C103.841 379.799 111.589 374.622 119.59 369.86C127.582 365.306 135.99 361.525 144.7 358.57C144.35 359.89 142.27 361.98 139.47 364.25C137.47 365.87 135.25 367.52 132.66 369.25C126.56 373.52 120.78 376.46 118.66 377.71C108.17 383.4 97.49 387.82 95.72 385.71L96.38 385.37Z" fill="#455A64"/>
<path d="M95.74 385.73C96.24 385.41 112.84 375.18 120.51 370.57C127.81 366.18 142.87 359.4 144.69 358.57C135.959 361.464 127.548 365.247 119.59 369.86C111.377 374.744 103.417 380.041 95.74 385.73V385.73Z" fill="#37474F"/>
<path d="M142.14 354.09L142.51 355.65C143.37 357.26 145.28 359.3 145.96 359.13C146.64 358.96 146.96 358.13 147.14 357C147.231 356.475 147.282 355.943 147.29 355.41C147.35 353.69 146.58 349.66 144.19 348.59C143.95 348.487 143.683 348.462 143.428 348.52C143.173 348.577 142.943 348.714 142.77 348.91C142.451 349.23 142.211 349.62 142.07 350.05C141.844 351.389 141.867 352.759 142.14 354.09V354.09Z" fill="#019444"/>
<path opacity="0.3" d="M142.14 354.09C142.26 354.74 142.51 355.65 142.51 355.65C143.37 357.26 145.28 359.3 145.96 359.13C146.64 358.96 146.96 358.13 147.14 357C147.231 356.475 147.282 355.943 147.29 355.41C147.35 353.69 146.58 349.66 144.19 348.59C143.95 348.487 143.683 348.462 143.428 348.52C143.173 348.577 142.943 348.714 142.77 348.91C142.451 349.23 142.211 349.62 142.07 350.05C141.844 351.389 141.867 352.759 142.14 354.09V354.09Z" fill="black"/>
<path d="M142.51 355.65C143.37 357.26 145.28 359.3 145.96 359.13C146.64 358.96 146.96 358.13 147.14 357C147.231 356.475 147.282 355.943 147.29 355.41C147.35 353.69 146.58 349.66 144.19 348.59C143.95 348.487 143.683 348.462 143.428 348.52C143.173 348.577 142.943 348.714 142.77 348.91L143.09 349.65C144.77 350.36 145.22 352.95 145.09 354.92C144.96 356.89 143.47 356.67 142.51 355.65Z" fill="#019444"/>
<path opacity="0.35" d="M142.51 355.65C143.37 357.26 145.28 359.3 145.96 359.13C146.64 358.96 146.96 358.13 147.14 357C147.231 356.475 147.282 355.943 147.29 355.41C147.35 353.69 146.58 349.66 144.19 348.59C143.95 348.487 143.683 348.462 143.428 348.52C143.173 348.577 142.943 348.714 142.77 348.91L143.09 349.65C144.77 350.36 145.22 352.95 145.09 354.92C144.96 356.89 143.47 356.67 142.51 355.65Z" fill="black"/>
<path d="M142.08 350C142.68 349.36 144.19 349.33 145.45 351.07C146.515 352.85 147.097 354.876 147.14 356.95C147.23 356.424 147.283 355.893 147.3 355.36C147.36 353.63 146.59 349.61 144.19 348.54C143.19 348.12 142.36 349.14 142.08 350Z" fill="#37474F"/>
<path d="M88.25 408L104.9 398.39L95.65 393.05L88.25 397.33V408Z" fill="#019444"/>
<path opacity="0.45" d="M88.25 408L104.9 398.39L95.65 393.05L88.25 397.33V408Z" fill="black"/>
<path d="M95.1 405.61L92.71 400.86L98.4 397.57C100.21 396.57 102.62 396.65 105.27 398.17C110.89 401.42 115.45 409.79 115.45 416.87C115.45 420.58 114.2 423.19 112.2 424.38L112.12 424.43L106.29 427.79L103.76 422.79C99 419.14 95.29 411.93 95.1 405.61Z" fill="#37474F"/>
<path d="M95.1 405.61L92.71 400.86L98.4 397.57C100.21 396.57 102.62 396.65 105.27 398.17C110.89 401.42 115.45 409.79 115.45 416.87C115.45 420.58 114.2 423.19 112.2 424.38L112.12 424.43L106.29 427.79L103.76 422.79C99 419.14 95.29 411.93 95.1 405.61Z" fill="#263238"/>
<path d="M89.17 408.53C89.2934 411.761 90.058 414.934 91.4194 417.867C92.7808 420.799 94.7118 423.431 97.1 425.61V425.61C97.7905 426.213 98.5372 426.749 99.33 427.21C104.95 430.46 109.51 427.35 109.51 420.27C109.287 414.526 107.058 409.041 103.21 404.77V404.77C102.094 403.525 100.796 402.457 99.36 401.6C93.73 398.35 89.17 401.46 89.17 408.53Z" fill="#37474F"/>
<path d="M99.35 405.87C95.77 403.8 92.87 405.95 92.87 410.67C92.87 415.39 95.77 420.89 99.35 422.96C102.93 425.03 105.83 422.87 105.83 418.15C105.83 413.43 102.93 407.93 99.35 405.87Z" fill="#455A64"/>
<path d="M96.42 413.11C96.67 415.45 98.18 417.94 99.79 418.66C100.066 418.817 100.382 418.886 100.698 418.859C101.014 418.833 101.315 418.711 101.56 418.51C101.887 418.132 102.122 417.683 102.247 417.199C102.372 416.715 102.383 416.209 102.28 415.72C102.03 413.37 100.52 410.88 98.9 410.16C98.5363 409.974 98.1188 409.921 97.72 410.01C96.79 410.24 96.24 411.4 96.42 413.11Z" fill="#FAFAFA"/>
<path d="M97 412.8C97.25 415.15 98.76 417.64 100.37 418.36C100.739 418.541 101.158 418.594 101.56 418.51C101.887 418.132 102.122 417.683 102.247 417.199C102.372 416.715 102.383 416.209 102.28 415.72C102.03 413.37 100.52 410.88 98.9 410.16C98.5363 409.974 98.1188 409.921 97.72 410.01C97.3902 410.386 97.1533 410.835 97.0282 411.319C96.9032 411.804 96.8935 412.311 97 412.8V412.8Z" fill="#E0E0E0"/>
<path d="M89.17 408.53C89.2934 411.761 90.058 414.934 91.4194 417.867C92.7808 420.799 94.7118 423.431 97.1 425.61C93.9502 422.043 91.731 417.752 90.64 413.12C89.78 409.04 90.11 403.18 93.64 401.7C97.17 400.22 101.77 403.34 103.23 404.76C102.114 403.515 100.816 402.447 99.38 401.59C93.73 398.35 89.17 401.46 89.17 408.53Z" fill="#455A64"/>
<path d="M88.22 384.05C88.22 384.05 89.22 383.87 88.96 383.05C88.96 383.05 94.63 385.65 95.82 386.05C98.42 386.91 108.19 383.43 118.68 377.74C120.78 376.49 126.56 373.55 132.68 369.28C135.27 367.55 137.5 365.9 139.49 364.28C141.174 362.924 142.715 361.399 144.09 359.73C144.39 359.406 144.604 359.012 144.712 358.584C144.821 358.156 144.82 357.708 144.71 357.28C165.52 372.09 176.93 378.22 174.49 395.1C174.376 396.355 174.199 397.603 173.96 398.84C173.27 402.65 171.24 409.12 165.96 412.84C162.293 415.559 158.395 417.951 154.31 419.99C146.981 423.925 138.768 425.925 130.45 425.8C120.81 425.49 112.38 421.8 112.11 419.59C111.998 418.579 111.817 417.577 111.57 416.59C110.948 414.055 109.993 411.614 108.73 409.33C106.952 405.954 104.432 403.024 101.36 400.76C100.993 400.5 100.613 400.26 100.22 400.04C94.03 396.46 88.92 399.34 88.27 406.44C88.22 406.96 88.2 407.49 88.2 408.05L88.22 384.05Z" fill="#019444"/>
<path d="M145.18 421C150.35 419.634 155.28 417.486 159.8 414.63C163.052 412.869 165.97 410.55 168.42 407.78C169.92 405.9 170.83 403.46 169.88 403.78C167.627 405.78 165.245 407.631 162.75 409.32C156.26 413.25 149.38 418.12 138.75 418.32C138.079 418.297 137.408 418.35 136.75 418.48C134.17 419.29 141.1 422.06 145.18 421Z" fill="#455A64"/>
<path d="M123.36 416.22C123.95 416.14 125.42 416.53 127.93 417.22C130.44 417.91 131.03 418.01 131.93 418.65C132.83 419.29 134.81 420.9 135.82 421.42C137.43 422.25 135.82 422.84 131.34 422.85C126.86 422.86 125.34 421.51 124.34 420.13C123.34 418.75 122 416.41 123.36 416.22Z" fill="#455A64"/>
<path d="M174.35 396.16C174.28 396.77 174.15 397.65 173.94 398.81C173.592 400.7 173.053 402.549 172.33 404.33C172.119 404.582 171.831 404.758 171.51 404.83C170.74 404.78 171.4 403.46 171.94 401.49C172.48 399.52 173.86 397.61 174.35 396.16Z" fill="#455A64"/>
<path opacity="0.85" d="M162 390.71C156.065 395.026 149.698 398.712 143 401.71C142.762 401.8 142.547 401.941 142.37 402.125C142.193 402.308 142.06 402.528 141.98 402.77C141.899 403.011 141.874 403.268 141.905 403.52C141.936 403.773 142.023 404.015 142.16 404.23C143.126 405.529 144.352 406.612 145.76 407.41C146.948 407.865 148.262 407.865 149.45 407.41C154.655 405.537 159.493 402.772 163.75 399.24C164.719 398.412 165.364 397.268 165.57 396.01C165.634 394.314 165.393 392.621 164.86 391.01C164.44 389.91 162.89 390.07 162 390.71Z" fill="white"/>
<path d="M147.36 406.51C147.922 406.51 148.48 406.415 149.01 406.23C154.102 404.388 158.838 401.682 163.01 398.23C163.722 397.607 164.216 396.773 164.42 395.85C164.478 394.328 164.268 392.809 163.8 391.36C163.61 390.98 162.99 391.45 162.8 391.62C156.786 395.966 150.338 399.679 143.56 402.7C143.458 402.741 143.366 402.805 143.292 402.886C143.217 402.968 143.162 403.065 143.13 403.17C143.118 403.216 143.116 403.264 143.125 403.311C143.133 403.357 143.152 403.401 143.18 403.44C144.043 404.598 145.136 405.564 146.39 406.28C146.694 406.423 147.024 406.501 147.36 406.51V406.51Z" fill="#019444"/>
<path opacity="0.35" d="M147.36 406.51C147.922 406.51 148.48 406.415 149.01 406.23C154.102 404.388 158.838 401.682 163.01 398.23C163.722 397.607 164.216 396.773 164.42 395.85C164.478 394.328 164.268 392.809 163.8 391.36C163.61 390.98 162.99 391.45 162.8 391.62C156.786 395.966 150.338 399.679 143.56 402.7C143.458 402.741 143.366 402.805 143.292 402.886C143.217 402.968 143.162 403.065 143.13 403.17C143.118 403.216 143.116 403.264 143.125 403.311C143.133 403.357 143.152 403.401 143.18 403.44C144.043 404.598 145.136 405.564 146.39 406.28C146.694 406.423 147.024 406.501 147.36 406.51V406.51Z" fill="black"/>
<path d="M156.54 403.29L157.68 403.02C157.059 400.63 156.146 398.326 154.96 396.16L153.96 396.74C155.08 398.811 155.947 401.011 156.54 403.29Z" fill="#019444"/>
<path opacity="0.85" d="M156.54 403.29L157.68 403.02C157.059 400.63 156.146 398.326 154.96 396.16L153.96 396.74C155.08 398.811 155.947 401.011 156.54 403.29Z" fill="white"/>
<path d="M142.7 403.72C146.963 401.964 151.096 399.908 155.07 397.57C159.63 394.77 164.15 391.52 164.19 391.49L164.08 391.33C164.03 391.33 159.52 394.61 154.96 397.4C151.004 399.733 146.887 401.782 142.64 403.53L142.7 403.72Z" fill="#019444"/>
<path d="M143.29 404.28C147.487 402.572 151.558 400.567 155.47 398.28C160.03 395.49 164.23 392.42 164.27 392.39L164.16 392.23C164.16 392.23 159.92 395.32 155.37 398.11C151.469 400.393 147.413 402.398 143.23 404.11L143.29 404.28Z" fill="#019444"/>
<path d="M143.88 404.83C148.02 403.15 152.031 401.168 155.88 398.9C160.44 396.1 164.33 393.22 164.37 393.19L164.25 393.04C164.25 393.04 160.33 395.94 155.78 398.73C151.93 400.991 147.919 402.967 143.78 404.64L143.88 404.83Z" fill="#019444"/>
<path d="M144.47 405.38C148.549 403.75 152.494 401.804 156.27 399.56C160.83 396.76 164.41 394.07 164.44 394.05L164.32 393.89C164.32 393.89 160.72 396.6 156.17 399.39C152.401 401.624 148.466 403.566 144.4 405.2L144.47 405.38Z" fill="#019444"/>
<path d="M145.06 405.94C149.074 404.341 152.956 402.428 156.67 400.22C161.23 397.43 164.49 394.92 164.52 394.9L164.4 394.74C164.4 394.74 161.12 397.26 156.57 400.05C152.869 402.257 148.996 404.163 144.99 405.75L145.06 405.94Z" fill="#019444"/>
<path d="M145.65 406.49C149.602 404.935 153.421 403.062 157.07 400.89C159.67 399.308 162.187 397.592 164.61 395.75L164.49 395.59C162.078 397.435 159.568 399.147 156.97 400.72C153.328 402.884 149.52 404.753 145.58 406.31L145.65 406.49Z" fill="#019444"/>
<path d="M146.23 407.05C150.123 405.531 153.882 403.692 157.47 401.55C159.974 400.047 162.385 398.394 164.69 396.6L164.57 396.45C158.974 400.794 152.776 404.301 146.17 406.86L146.23 407.05Z" fill="#019444"/>
<g opacity="0.85">
<path d="M142.7 403.72C146.963 401.964 151.096 399.908 155.07 397.57C159.63 394.77 164.15 391.52 164.19 391.49L164.08 391.33C164.03 391.33 159.52 394.61 154.96 397.4C151.004 399.733 146.887 401.782 142.64 403.53L142.7 403.72Z" fill="white"/>
<path d="M143.29 404.28C147.487 402.572 151.558 400.567 155.47 398.28C160.03 395.49 164.23 392.42 164.27 392.39L164.16 392.23C164.16 392.23 159.92 395.32 155.37 398.11C151.469 400.393 147.413 402.398 143.23 404.11L143.29 404.28Z" fill="white"/>
<path d="M143.88 404.83C148.02 403.151 152.031 401.169 155.88 398.9C160.44 396.1 164.33 393.22 164.37 393.19L164.25 393.04C164.25 393.04 160.33 395.94 155.78 398.73C151.93 400.991 147.919 402.967 143.78 404.64L143.88 404.83Z" fill="white"/>
<path d="M144.47 405.38C148.549 403.75 152.494 401.804 156.27 399.56C160.83 396.76 164.41 394.07 164.44 394.05L164.32 393.89C164.32 393.89 160.72 396.6 156.17 399.39C152.401 401.624 148.466 403.566 144.4 405.2L144.47 405.38Z" fill="white"/>
<path d="M145.06 405.94C149.074 404.341 152.956 402.429 156.67 400.22C161.23 397.43 164.49 394.92 164.52 394.9L164.4 394.74C164.4 394.74 161.12 397.26 156.57 400.05C152.869 402.257 148.996 404.163 144.99 405.75L145.06 405.94Z" fill="white"/>
<path d="M145.65 406.49C149.602 404.935 153.421 403.062 157.07 400.89C159.67 399.308 162.187 397.592 164.61 395.75L164.49 395.59C162.078 397.435 159.568 399.147 156.97 400.72C153.328 402.884 149.52 404.753 145.58 406.31L145.65 406.49Z" fill="white"/>
<path d="M146.23 407.05C150.123 405.531 153.882 403.692 157.47 401.55C159.974 400.047 162.385 398.394 164.69 396.6L164.57 396.45C158.974 400.794 152.776 404.301 146.17 406.86L146.23 407.05Z" fill="white"/>
</g>
<path opacity="0.2" d="M146.85 361.69C147.78 361.48 161.85 371.93 163.7 373.75C165.55 375.57 164.7 375.53 163.19 378.56C161.29 382.26 163.5 385.5 162.19 385.24C161.53 385.12 158.67 379.24 154.48 373.47C150.29 367.7 145.26 362 146.85 361.69Z" fill="white"/>
<path opacity="0.85" d="M124.3 407.31C123.51 406.36 122.95 405.2 123.62 404.18C124.51 403.198 125.691 402.525 126.99 402.26C130.461 401.274 134.18 401.698 137.34 403.44C138.069 403.822 138.721 404.338 139.26 404.96C139.525 405.273 139.726 405.636 139.849 406.027C139.973 406.419 140.017 406.831 139.98 407.24C139.5 411.05 133.86 411.55 130.98 411.04C129.096 410.706 127.324 409.913 125.82 408.73C125.266 408.31 124.757 407.834 124.3 407.31V407.31Z" fill="white"/>
<path d="M129.22 403.52C127.97 403.52 125.22 403.52 125.44 405.41C125.65 407.1 128.23 408.47 129.73 408.71C131.62 409.02 132.41 406.63 131.86 405.12C131.636 404.615 131.263 404.192 130.791 403.905C130.319 403.619 129.771 403.485 129.22 403.52V403.52Z" fill="white"/>
<path d="M135 406.81C134 406.81 132.58 407.15 132.52 408.38C132.52 409.38 134.02 409.38 134.73 409.14C136.37 408.61 136.26 406.78 135 406.81Z" fill="white"/>
<path d="M136.56 404.73C136.7 404.759 136.833 404.818 136.948 404.902C137.064 404.987 137.16 405.095 137.23 405.22C137.48 405.65 137.44 406.28 136.89 406.42C136.07 406.342 135.293 406.017 134.66 405.49C134.2 404.72 135.87 404.63 136.25 404.68L136.56 404.73Z" fill="white"/>
<path opacity="0.85" d="M170 391C169.777 391.105 169.536 391.169 169.29 391.19C168.964 391.209 168.637 391.158 168.332 391.041C168.026 390.924 167.75 390.743 167.52 390.51C167.059 390.049 166.677 389.515 166.39 388.93C164.93 386.29 161.47 379.16 166.39 378C167.96 377.62 169.66 379.12 170.54 380.31C171.807 382.064 172.4 384.215 172.21 386.37C172 387.86 171.47 390.31 170 391Z" fill="white"/>
<path d="M168.31 379.43C167.899 379.196 167.437 379.067 166.964 379.055C166.491 379.043 166.023 379.147 165.6 379.36C163.91 380.73 167.38 383.36 168.47 383.89C170.22 384.72 171.01 383.49 170.25 381.89C169.895 380.896 169.224 380.046 168.34 379.47L168.31 379.43Z" fill="white"/>
<path d="M170.71 386.08C170.39 385.86 169.97 386.08 169.57 387C169.29 387.64 168.9 389.29 170.09 389.19C171.63 389.06 171.42 386.56 170.71 386.08Z" fill="white"/>
<path d="M166.28 385.48C166.332 385.811 166.478 386.121 166.702 386.371C166.925 386.621 167.216 386.801 167.54 386.89C169.04 387.06 167.99 383.32 166.61 384.44C166.467 384.568 166.361 384.732 166.302 384.915C166.244 385.098 166.237 385.293 166.28 385.48Z" fill="white"/>
<path opacity="0.15" d="M122.59 407.08C118.118 407.44 113.938 409.446 110.86 412.71C114.45 410.228 118.408 408.328 122.59 407.08Z" fill="black"/>
<path opacity="0.15" d="M143 363.2C150.299 370.188 156.445 378.289 161.21 387.2L143 363.2Z" fill="black"/>
<path opacity="0.15" d="M140.38 399.22C140.38 399.22 124.3 390.91 100.69 387.81L140.38 399.22Z" fill="black"/>
<path opacity="0.15" d="M174.5 392.77C173.24 396.38 168.81 401.87 162.24 405.77C155.67 409.67 147.14 414.95 137.46 415.26C127.78 415.57 121.12 408.4 121.12 408.4C121.12 408.4 126.12 416.34 137.46 416.59C148.8 416.84 155.82 411.81 162.57 407.72C169.59 403.43 173.71 397.37 174.5 392.77Z" fill="black"/>
<path opacity="0.2" d="M113.06 410.19C110.76 404.34 106.4 399.76 102.76 398.49C106.7 398.8 111.93 402.85 113.96 409.63C114 409.63 113.37 410 113.06 410.19Z" fill="white"/>
<path opacity="0.2" d="M114.33 411C114.84 413.385 114.951 415.838 114.66 418.26C114.653 415.93 114.268 413.617 113.52 411.41L114.33 411Z" fill="white"/>
<path opacity="0.2" d="M123.25 401.91C120.55 403.23 120.25 405.01 118.25 403.41C116.25 401.81 101.51 391.29 98 389.8C94.09 388.12 97.65 387.9 106.53 390.66C115.41 393.42 130.82 397.58 131.47 398.49C132.12 399.4 128.46 399.35 123.25 401.91Z" fill="white"/>
<path d="M82.55 361.52L94 386.39C96.25 390.29 120.14 378.19 134.41 368.13C141.28 363.29 145.93 358.91 144.84 357.03C139.041 349.667 132.525 342.897 125.39 336.82C124.65 337.57 123.89 338.31 123.1 339.02C121.215 340.76 119.239 342.399 117.18 343.93C107.94 350.79 96.2 356.56 82.55 361.52ZM85.55 364.32C85.4453 364.076 85.3901 363.814 85.3878 363.548C85.3855 363.283 85.4361 363.019 85.5367 362.774C85.6372 362.528 85.7856 362.305 85.9734 362.117C86.1611 361.929 86.3843 361.781 86.63 361.68C99.54 356.73 109.86 351.32 118.07 345.19C120.157 343.631 122.16 341.962 124.07 340.19V340.19C124.434 339.872 124.901 339.697 125.385 339.697C125.869 339.697 126.336 339.872 126.7 340.19C132.74 345.561 138.298 351.45 143.31 357.79C143.17 358.29 142.07 360.79 133.41 366.88C120 376.33 101.41 385.6 95.84 385.6C95.6316 385.608 95.423 385.588 95.22 385.54L85.55 364.32Z" fill="#37474F"/>
<path d="M95.28 385.5C95.483 385.548 95.6916 385.568 95.9 385.56C101.45 385.56 120.06 376.29 133.47 366.84C142.13 360.73 143.23 358.25 143.37 357.75C138.358 351.41 132.8 345.521 126.76 340.15C126.396 339.832 125.929 339.657 125.445 339.657C124.961 339.657 124.494 339.832 124.13 340.15V340.15C122.22 341.922 120.217 343.591 118.13 345.15C109.92 351.28 99.6 356.69 86.69 361.64C86.4443 361.741 86.2211 361.889 86.0334 362.077C85.8457 362.265 85.6972 362.488 85.5967 362.734C85.4961 362.979 85.4456 363.243 85.4478 363.508C85.4501 363.774 85.5053 364.036 85.61 364.28L95.28 385.5Z" fill="#263238"/>
<path opacity="0.2" d="M133.47 366.84C131.3 368.37 129.01 369.84 126.66 371.36C121.82 363.51 114.66 353.04 111.9 349.41C114.08 348.04 116.14 346.64 118.08 345.19C119.32 344.26 120.51 343.32 121.63 342.37C128.78 349.02 135.35 358.98 138.08 363.37C136.85 364.38 135.33 365.53 133.47 366.84Z" fill="white"/>
<path opacity="0.2" d="M107.5 352C108.38 351.513 109.24 351.013 110.08 350.5C115.381 357.551 120.279 364.896 124.75 372.5C123.75 373.08 122.85 373.65 121.89 374.21C118.77 369.12 113.34 360.44 107.5 352Z" fill="white"/>
<path opacity="0.3" d="M109.73 380.1C102.96 383.34 95.9 385.56 95.33 384.05C94.76 382.54 89.82 372.65 88.4 368.73C86.98 364.81 86.66 364.38 87.59 363.2C88.52 362.02 93.65 360.1 101.98 356.2C110.31 352.3 118.08 345.2 118.08 345.2C109.87 351.33 99.55 356.74 86.64 361.69C86.3943 361.791 86.1711 361.939 85.9834 362.127C85.7957 362.315 85.6472 362.538 85.5467 362.784C85.4461 363.029 85.3955 363.293 85.3978 363.558C85.4001 363.824 85.4553 364.086 85.56 364.33L95.28 385.51C95.483 385.558 95.6916 385.578 95.9 385.57C101.45 385.57 120.06 376.3 133.47 366.85C130.71 368.85 116.5 376.86 109.73 380.1Z" fill="white"/>
<path d="M82.52 384.34C83.28 388.01 87.35 388.79 90.39 388.69C91.529 388.708 92.6614 388.514 93.73 388.12C94.91 387.44 94.37 386.03 93.73 385.22C92.66 383.84 87.88 381.07 84.88 380.97C83.13 380.91 82 381.77 82.52 384.34Z" fill="#019444"/>
<path opacity="0.3" d="M82.52 384.34C83.28 388.01 87.35 388.79 90.39 388.69C91.529 388.708 92.6614 388.514 93.73 388.12C94.91 387.44 94.37 386.03 93.73 385.22C92.66 383.84 87.88 381.07 84.88 380.97C83.13 380.91 82 381.77 82.52 384.34Z" fill="black"/>
<path d="M82.52 384.34C83.28 388.01 87.35 388.79 90.39 388.69C91.529 388.708 92.6614 388.514 93.73 388.12C94.91 387.44 94.37 386.03 93.73 385.22C94.32 386.34 91.19 387.03 88.39 386.03C85.59 385.03 83.52 382.87 84.88 380.97C83.13 380.91 82 381.77 82.52 384.34Z" fill="#019444"/>
<path opacity="0.35" d="M82.52 384.34C83.28 388.01 87.35 388.79 90.39 388.69C91.529 388.708 92.6614 388.514 93.73 388.12C94.91 387.44 94.37 386.03 93.73 385.22C94.32 386.34 91.19 387.03 88.39 386.03C85.59 385.03 83.52 382.87 84.88 380.97C83.13 380.91 82 381.77 82.52 384.34Z" fill="black"/>
<path d="M82.52 384.34C83.28 388.01 87.35 388.79 90.39 388.69C89.0929 388.699 87.8169 388.362 86.6937 387.713C85.5704 387.065 84.6405 386.128 84 385C83.09 383.1 83.78 381.25 84.85 381C83.13 380.91 82 381.77 82.52 384.34Z" fill="#37474F"/>
<path d="M364.68 357.67C383.839 357.67 399.37 348.51 399.37 337.21C399.37 325.91 383.839 316.75 364.68 316.75C345.521 316.75 329.99 325.91 329.99 337.21C329.99 348.51 345.521 357.67 364.68 357.67Z" fill="#EBEBEB"/>
<path d="M353.52 315C353.74 310 354.38 292 354.38 292L363.92 298C363.14 306.85 360.76 313.7 360.1 318.73C360.1 318.73 356.75 321.37 354.86 323.08C353.258 324.584 351.529 325.946 349.69 327.15C348.28 328.02 345.29 328.35 344.84 327.44C347.237 325.346 349.492 323.094 351.59 320.7C353.36 318.51 353.41 317.46 353.52 315Z" fill="#FFA8A7"/>
<path d="M340.85 330.27C340.749 330.621 340.746 330.993 340.841 331.345C340.936 331.698 341.126 332.018 341.39 332.27C343.31 333.363 345.578 333.671 347.72 333.13C349.891 332.769 351.901 331.754 353.48 330.22C354.62 329.08 356.22 327.47 357.59 327.04C358.685 326.732 359.705 326.204 360.59 325.49C360.96 325.06 360.75 323.28 360.75 323.28L340.85 330.27Z" fill="#263238"/>
<path d="M360.28 317.5C360.378 317.575 360.457 317.672 360.511 317.783C360.565 317.894 360.592 318.016 360.59 318.14C360.422 318.928 360.379 319.738 360.46 320.54C360.691 321.631 360.789 322.746 360.75 323.86C360.66 324.79 358.6 325.61 357.3 326.24C355.779 327.077 354.39 328.135 353.18 329.38C351.405 330.943 349.231 331.982 346.9 332.38C343.84 332.69 341.79 332.04 341.08 330.99C340.2 329.7 340.72 328.86 344.08 326.91C344.72 326.55 346.93 324.91 347.69 324.38C349.863 322.868 351.529 320.735 352.47 318.26C352.526 317.958 352.681 317.684 352.91 317.48C353.119 317.371 353.356 317.329 353.59 317.36C354.185 317.388 354.772 317.509 355.33 317.72C355.82 317.9 356.8 318.09 356.85 318.72C356.828 318.998 356.774 319.274 356.69 319.54C356.69 319.67 356.57 320.12 356.69 320.18C356.81 320.24 357.06 319.93 357.14 319.83C357.49 319.36 357.6 319.08 358.14 318.94C358.68 318.8 359.9 318.66 360.22 318.14L360.28 317.5Z" fill="#37474F"/>
<path d="M343.55 327.23C348.01 327.14 349.65 329.76 349.99 331.44C349.013 331.906 347.971 332.223 346.9 332.38C343.84 332.69 341.66 332.05 340.95 331C340.12 329.78 340.52 328.7 343.55 327.23Z" fill="#FAFAFA"/>
<path d="M350.2 326.69C350.251 326.68 350.298 326.66 350.34 326.63C350.379 326.588 350.4 326.532 350.4 326.475C350.4 326.418 350.379 326.362 350.34 326.32C349.775 325.832 349.113 325.47 348.397 325.258C347.682 325.046 346.929 324.989 346.19 325.09C346.133 325.102 346.083 325.136 346.051 325.185C346.019 325.234 346.008 325.293 346.02 325.35C346.032 325.407 346.066 325.457 346.115 325.489C346.164 325.521 346.223 325.532 346.28 325.52C346.947 325.434 347.625 325.488 348.27 325.677C348.916 325.867 349.515 326.188 350.03 326.62C350.052 326.643 350.078 326.661 350.108 326.673C350.137 326.685 350.168 326.691 350.2 326.69Z" fill="#F0F0F0"/>
<path d="M352 325.41C352.05 325.4 352.098 325.38 352.14 325.35C352.179 325.308 352.2 325.252 352.2 325.195C352.2 325.138 352.179 325.082 352.14 325.04C351.576 324.55 350.914 324.187 350.198 323.974C349.483 323.762 348.729 323.706 347.99 323.81C347.933 323.822 347.883 323.856 347.851 323.905C347.819 323.954 347.808 324.013 347.82 324.07C347.825 324.099 347.835 324.126 347.851 324.151C347.867 324.175 347.888 324.196 347.912 324.212C347.937 324.228 347.964 324.239 347.993 324.244C348.022 324.249 348.052 324.247 348.08 324.24C348.747 324.152 349.425 324.204 350.071 324.394C350.717 324.583 351.316 324.905 351.83 325.34C351.852 325.363 351.878 325.381 351.908 325.393C351.937 325.405 351.968 325.411 352 325.41Z" fill="#F0F0F0"/>
<path d="M353.67 324C353.718 323.992 353.763 323.972 353.8 323.94C353.841 323.899 353.864 323.843 353.864 323.785C353.864 323.727 353.841 323.671 353.8 323.63C353.234 323.143 352.572 322.782 351.857 322.57C351.142 322.358 350.389 322.3 349.65 322.4C349.593 322.412 349.543 322.446 349.511 322.495C349.479 322.544 349.468 322.603 349.48 322.66C349.485 322.688 349.495 322.714 349.51 322.738C349.526 322.762 349.546 322.782 349.569 322.798C349.592 322.814 349.619 322.825 349.646 322.83C349.674 322.836 349.702 322.836 349.73 322.83C350.399 322.745 351.078 322.799 351.724 322.989C352.371 323.178 352.972 323.498 353.49 323.93C353.513 323.954 353.541 323.974 353.572 323.986C353.603 323.998 353.637 324.003 353.67 324V324Z" fill="#F0F0F0"/>
<path d="M355.29 322.55C355.338 322.55 355.385 322.532 355.42 322.5C355.461 322.459 355.484 322.403 355.484 322.345C355.484 322.287 355.461 322.231 355.42 322.19C354.808 321.657 354.084 321.271 353.301 321.059C352.517 320.848 351.697 320.817 350.9 320.97C350.843 320.982 350.793 321.016 350.761 321.065C350.729 321.114 350.718 321.173 350.73 321.23C350.735 321.259 350.745 321.286 350.761 321.311C350.777 321.335 350.798 321.356 350.822 321.372C350.847 321.388 350.874 321.399 350.903 321.404C350.932 321.409 350.962 321.407 350.99 321.4C351.715 321.261 352.461 321.287 353.174 321.476C353.887 321.664 354.549 322.011 355.11 322.49C355.131 322.516 355.16 322.535 355.191 322.546C355.223 322.556 355.257 322.558 355.29 322.55V322.55Z" fill="#F0F0F0"/>
<path d="M376.18 305.33L386.49 304.26C386.85 310.57 386.41 317.64 386.71 323.56C386.77 324.67 386.93 332.14 386.71 334.46C386.35 337.95 382.23 337.81 381.85 335.77C381.47 333.73 380.24 325.04 380.15 324.14C379.88 320.35 378.22 314.14 376.74 307.42C376.66 307.09 376.24 305.65 376.18 305.33Z" fill="#FFA8A7"/>
<path d="M380.42 337.32C380.375 338.911 380.736 340.487 381.47 341.9C381.819 342.464 382.345 342.896 382.965 343.13C383.586 343.363 384.266 343.384 384.9 343.19C386.28 342.87 388.05 341.97 388.48 340.19C388.869 338.61 388.903 336.964 388.58 335.37L380.42 337.32Z" fill="#263238"/>
<path d="M386.68 322.83C387.24 322.89 386.86 325.55 387.13 328.28C387.42 331.2 388.26 332.43 388.53 334.83C388.83 337.57 388.66 338.83 387.67 340.42C386.68 342.01 383.25 343.61 381.67 341.2C380.34 339.25 380.33 337.1 380.51 334.38C380.624 332.127 380.503 329.868 380.15 327.64C379.88 325.29 379.61 323.55 380.15 323.33C380.15 323.64 380.22 324.15 380.25 324.44C380.28 324.73 380.43 325.73 380.61 325.66C380.63 325.404 380.63 325.146 380.61 324.89C380.582 324.656 380.643 324.421 380.78 324.23C380.956 324.075 381.176 323.98 381.41 323.96C382.303 323.788 383.204 323.664 384.11 323.59C384.801 323.531 385.497 323.585 386.17 323.75C386.239 323.773 386.301 323.81 386.353 323.861C386.405 323.911 386.445 323.972 386.47 324.04C386.49 324.142 386.49 324.248 386.47 324.35C386.46 324.539 386.48 324.728 386.53 324.91C386.53 324.99 386.6 325.09 386.68 325.08C386.76 325.07 386.77 324.98 386.78 324.91C386.78 324.58 386.78 324.34 386.78 323.91C386.78 323.73 386.78 323.49 386.78 323.31C386.755 323.148 386.722 322.988 386.68 322.83Z" fill="#37474F"/>
<path d="M388.65 336.42C388.824 337.851 388.529 339.3 387.81 340.55C386.81 342.19 383.13 343.74 381.5 341.34C380.787 340.128 380.414 338.746 380.42 337.34C381.46 335.52 387.1 334.83 388.65 336.42Z" fill="#FAFAFA"/>
<path d="M381.93 334.38H382C383.552 333.756 385.257 333.617 386.89 333.98C386.943 333.992 386.999 333.983 387.045 333.955C387.092 333.927 387.126 333.882 387.14 333.83C387.148 333.803 387.15 333.775 387.146 333.747C387.143 333.719 387.134 333.693 387.12 333.668C387.106 333.644 387.087 333.623 387.065 333.606C387.042 333.589 387.017 333.577 386.99 333.57C385.267 333.17 383.463 333.321 381.83 334C381.786 334.021 381.75 334.056 381.729 334.1C381.708 334.144 381.703 334.194 381.715 334.241C381.727 334.288 381.755 334.33 381.794 334.359C381.833 334.388 381.881 334.403 381.93 334.4V334.38Z" fill="#F0F0F0"/>
<path d="M386.79 331.92C386.84 331.919 386.888 331.9 386.925 331.868C386.962 331.835 386.987 331.79 386.994 331.74C387.001 331.691 386.991 331.641 386.964 331.599C386.938 331.557 386.897 331.525 386.85 331.51C385.142 330.996 383.304 331.131 381.69 331.89C381.641 331.916 381.605 331.959 381.588 332.012C381.571 332.064 381.575 332.121 381.6 332.17C381.612 332.195 381.628 332.217 381.649 332.236C381.669 332.254 381.693 332.269 381.719 332.278C381.745 332.287 381.773 332.291 381.8 332.29C381.828 332.289 381.855 332.282 381.88 332.27C383.392 331.565 385.11 331.437 386.71 331.91L386.79 331.92Z" fill="#F0F0F0"/>
<path d="M386.69 330C386.73 330 386.769 329.987 386.801 329.964C386.833 329.941 386.857 329.908 386.87 329.87C386.89 329.818 386.888 329.761 386.866 329.71C386.843 329.66 386.802 329.62 386.75 329.6C385.897 329.288 384.988 329.159 384.082 329.221C383.176 329.283 382.293 329.535 381.49 329.96C381.465 329.973 381.444 329.992 381.426 330.014C381.409 330.036 381.396 330.061 381.389 330.088C381.381 330.115 381.379 330.143 381.383 330.171C381.387 330.199 381.396 330.226 381.41 330.25C381.424 330.274 381.443 330.294 381.466 330.311C381.488 330.327 381.513 330.339 381.54 330.345C381.567 330.352 381.595 330.353 381.623 330.349C381.65 330.344 381.676 330.335 381.7 330.32C382.452 329.935 383.274 329.708 384.116 329.651C384.958 329.594 385.804 329.71 386.6 329.99C386.628 330.003 386.66 330.007 386.69 330V330Z" fill="#F0F0F0"/>
<path d="M386.56 327.83C386.6 327.83 386.639 327.817 386.671 327.794C386.703 327.771 386.727 327.738 386.74 327.7C386.76 327.648 386.758 327.591 386.735 327.54C386.713 327.49 386.672 327.45 386.62 327.43C385.754 327.141 384.838 327.029 383.927 327.101C383.017 327.174 382.13 327.428 381.32 327.85C381.296 327.862 381.274 327.88 381.257 327.901C381.24 327.922 381.227 327.946 381.22 327.973C381.212 327.999 381.21 328.026 381.213 328.053C381.217 328.08 381.226 328.107 381.24 328.13C381.253 328.154 381.27 328.176 381.291 328.193C381.312 328.21 381.336 328.223 381.363 328.23C381.389 328.238 381.416 328.24 381.443 328.236C381.471 328.233 381.497 328.224 381.52 328.21C382.287 327.819 383.123 327.584 383.981 327.517C384.839 327.45 385.702 327.553 386.52 327.82L386.56 327.83Z" fill="#EBEBEB"/>
<path d="M379.15 237.68C381.96 241.81 386.2 247.49 386 258.03C385.67 274.62 385.58 285.3 385.58 285.3C386.26 287.12 387.51 288.41 387.5 296.74C387.5 303.39 387.43 319.47 387.43 319.47C387.43 319.47 382.43 321.47 378.52 319.75C377.07 314.33 374.46 297.14 373.33 289.81C372.24 282.68 370.6 268.95 370.6 268.95L366 284.57C366.328 288.06 366.184 291.579 365.57 295.03C364.77 299.42 361.14 316.77 361.14 316.77C361.14 316.77 356.19 318.12 352.88 315.56C352.88 315.56 354.11 287.8 354.32 282.44C354.65 274.39 354.58 260.93 355.97 249.94C356.51 245.74 357.97 241.43 358.71 238.61L379.15 237.68Z" fill="#37474F"/>
<path d="M362 284C362.338 289.038 362.093 294.098 361.27 299.08C360.69 303.13 359.2 313.47 358.55 317.08H359C359.65 313.46 361.13 303.16 361.71 299.08C362.533 294.075 362.778 288.991 362.44 283.93C362.25 280.37 364.56 263.27 365.84 255.73L365.43 255.66C364.1 263.29 361.79 280.44 362 284Z" fill="#455A64"/>
<path d="M384 287.25C383.9 286.92 383.8 286.63 383.73 286.34C383.42 285.21 383.15 277.05 383.3 271.23C383.4 267.14 383.51 262.91 383.49 259.48C383.49 250.78 381.49 243.84 377.33 237.77H376.84C379.47 241.56 381.52 248.21 382.48 252.9C380.48 252.65 377.69 250.2 376.58 247.33C375.38 244.19 373.74 239.5 373.72 239.45L373.34 239.62C373.34 239.62 374.99 244.35 376.2 247.48C377.2 250.14 378.2 251.93 381.43 253.07C381.831 253.242 382.263 253.331 382.7 253.33C383.011 255.358 383.138 257.409 383.08 259.46C383.08 262.88 382.99 267.11 382.88 271.2C382.73 277.31 383 285.2 383.33 286.43C383.41 286.72 383.5 287.02 383.61 287.35C384.2 289.19 384.93 293.35 385.07 302.26C385.14 306.96 385.56 318.63 385.57 321.82L385.98 321.69C385.98 318.52 385.55 306.9 385.48 302.26C385.33 293.28 384.59 289.1 384 287.25Z" fill="#455A64"/>
<path d="M387.49 318.86C385.87 319.86 380.54 320.4 378.39 319.54L378.95 322.1C380.369 322.556 381.865 322.726 383.35 322.6C386.35 322.49 387.43 321.23 387.43 321.23L387.49 318.86Z" fill="#455A64"/>
<path d="M361.86 314.35C360.07 314.93 354.86 314.02 352.99 312.71L352.92 315.56C354.084 316.511 355.519 317.071 357.02 317.16C360.02 317.56 361.18 316.77 361.18 316.77L361.86 314.35Z" fill="#455A64"/>
<path d="M370.6 269L368.78 255.77C368.78 255.77 361.78 254.77 359.32 252.3C359.32 252.3 362.43 256.89 367.16 257.72L368.95 267.47L366.06 284.47L370.6 269Z" fill="#263238"/>
<path d="M363.55 213.55C361.05 213.55 358.55 214.49 356.23 218.17C354.23 221.23 351.71 225.22 349.76 228.72L338 226.12L336.89 232C336.89 232 347.29 236.26 350.35 236.94C352.64 237.45 353.35 237.72 355.92 234.85C358.49 231.98 362.2 226.85 362.2 226.85L363.55 213.55Z" fill="#019444"/>
<path opacity="0.2" d="M363.55 213.55C361.05 213.55 358.55 214.49 356.23 218.17C354.23 221.23 351.71 225.22 349.76 228.72L338 226.12L336.89 232C336.89 232 347.29 236.26 350.35 236.94C352.64 237.45 353.35 237.72 355.92 234.85C358.49 231.98 362.2 226.85 362.2 226.85L363.55 213.55Z" fill="black"/>
<path d="M329.05 221L329.57 220.45C329.649 220.383 329.743 220.337 329.845 220.316C329.946 220.295 330.051 220.3 330.15 220.33L336.95 221.49C337.271 221.562 337.572 221.703 337.833 221.903C338.094 222.104 338.308 222.358 338.46 222.65L344.14 235C344.205 235.099 344.24 235.216 344.24 235.335C344.24 235.454 344.205 235.57 344.14 235.67V235.67L343.6 236.23C343.519 236.296 343.423 236.343 343.32 236.365C343.218 236.388 343.112 236.386 343.01 236.36L336.21 235.19C335.889 235.118 335.588 234.977 335.327 234.777C335.066 234.576 334.852 234.322 334.7 234.03L329 221.65C328.939 221.55 328.912 221.433 328.921 221.317C328.93 221.2 328.975 221.09 329.05 221V221Z" fill="#455A64"/>
<path d="M337.13 222.31C337.471 222.522 337.747 222.823 337.93 223.18L343.62 235.53C343.68 235.628 343.712 235.74 343.712 235.855C343.712 235.97 343.68 236.082 343.62 236.18L344.12 235.65C344.186 235.552 344.221 235.438 344.221 235.32C344.221 235.202 344.186 235.087 344.12 234.99L338.43 222.64C338.263 222.304 338.007 222.02 337.69 221.82L337.13 222.31Z" fill="#263238"/>
<path d="M343.62 235.53L337.93 223.18C337.777 222.889 337.562 222.635 337.302 222.435C337.041 222.235 336.74 222.093 336.42 222.02L329.61 220.85C329.03 220.75 328.76 221.11 329 221.65L334.69 234C334.843 234.291 335.057 234.545 335.318 234.745C335.579 234.945 335.88 235.087 336.2 235.16L343 236.33C343.59 236.43 343.86 236.07 343.62 235.53Z" fill="#37474F"/>
<path d="M338.19 225.86L337.12 223.55C337.092 223.495 337.053 223.447 337.004 223.409C336.956 223.371 336.9 223.344 336.84 223.33L335.66 223.13C335.55 223.13 335.5 223.18 335.54 223.28L336.61 225.59C336.638 225.645 336.677 225.693 336.726 225.731C336.774 225.769 336.83 225.796 336.89 225.81L338.07 226.01C338.18 226 338.23 226 338.19 225.86Z" fill="#455A64"/>
<path d="M337.12 224.13C337.047 223.993 336.945 223.873 336.82 223.78C336.696 223.686 336.552 223.622 336.4 223.59C336.12 223.59 335.98 223.71 336.1 223.95C336.173 224.087 336.275 224.207 336.4 224.3C336.524 224.393 336.668 224.458 336.82 224.49C337.1 224.53 337.24 224.37 337.12 224.13Z" fill="#263238"/>
<path d="M337.64 225.3C337.568 225.164 337.467 225.045 337.345 224.952C337.222 224.858 337.08 224.793 336.93 224.76C336.64 224.76 336.5 224.88 336.62 225.12C336.691 225.258 336.793 225.378 336.917 225.47C337.042 225.562 337.187 225.624 337.34 225.65C337.62 225.7 337.76 225.54 337.64 225.3Z" fill="#263238"/>
<path d="M330.4 227.67C329.72 226.98 329.75 226.87 329.99 226.42C330.162 226.065 330.418 225.757 330.735 225.522C331.051 225.287 331.42 225.132 331.81 225.07C332.382 224.932 332.975 224.894 333.56 224.96C333.95 225.09 333.77 225.88 332.92 226.23C331.56 226.78 331.64 227.16 331.64 227.16C332.214 226.919 332.802 226.712 333.4 226.54C334.102 226.484 334.808 226.484 335.51 226.54C336.11 226.54 336.36 227.28 335.4 227.71H336.52C337.3 227.71 337.62 228.07 337.1 228.64C336.936 228.834 336.71 228.965 336.46 229.01C336.46 229.01 337.27 228.87 337.33 229.14C337.51 229.9 337.04 230.14 335.49 230.94C333.94 231.74 333.88 232.32 334.23 233.07C334.23 233.07 333.54 232.81 332.92 232.52C332.46 232.31 332.06 232.05 332.14 231.38C332.14 231.38 331.25 231.55 331.14 231C331.058 230.601 331.058 230.189 331.14 229.79C330.967 229.724 330.816 229.612 330.703 229.466C330.59 229.319 330.519 229.144 330.5 228.96C330.444 228.618 330.501 228.267 330.66 227.96L330.4 227.67Z" fill="#FFA8A7"/>
<path d="M335.4 227.67C335.066 227.661 334.731 227.681 334.4 227.73C334.076 227.832 333.772 227.988 333.5 228.19C332.943 228.547 332.418 228.952 331.93 229.4C332.532 229.119 333.108 228.784 333.65 228.4C333.905 228.213 334.176 228.05 334.46 227.91C334.75 227.85 335.09 227.79 335.4 227.67Z" fill="#F28F8F"/>
<path d="M336.46 229C336.096 228.959 335.728 229.011 335.39 229.15C335.041 229.278 334.706 229.443 334.39 229.64C333.781 230.01 333.214 230.446 332.7 230.94C333.331 230.621 333.945 230.271 334.54 229.89C335.116 229.472 335.768 229.17 336.46 229V229Z" fill="#F28F8F"/>
<path d="M367.82 213.39C367.82 213.39 377.64 213.82 380.1 214.91C381.23 215.41 381.85 217.75 381.43 224.75C381.22 228.2 381.03 231.27 381.11 234.16C381.18 236.244 381.448 238.317 381.91 240.35C375.97 244.98 358.73 243.35 356.33 240.24C356.33 240.24 357.03 234.07 357.25 230.88C357.25 230.88 355.45 227.88 355.58 225.88C355.75 222.94 356.35 221.88 359 218.58C360.408 216.799 361.924 215.105 363.54 213.51L367.82 213.39Z" fill="#019444"/>
<path d="M360.48 200.33C355.23 194.49 361.4 189.33 368.96 189.33C374.52 189.33 379.48 193.97 379.75 199.02C380.1 205.66 379.31 207.47 376.26 209.88C371.88 213.35 360.59 213.88 358.26 207.88C360.21 207.48 360.77 204.59 360.48 200.33Z" fill="#37474F"/>
<path d="M374.28 212.49L374.54 207.26C375.004 207.498 375.535 207.569 376.045 207.462C376.555 207.354 377.012 207.075 377.34 206.67C378.88 205.03 379.02 203.27 378.15 202.15C377.28 201.03 375.15 201.4 374.24 202.94C372.88 203.28 372.31 201.34 373.32 199.34C373.32 199.34 370.53 197.76 371.02 194.85C368.41 194.17 364.2 194.44 361.92 194.68C361.18 195.83 360.07 197.46 360.24 203.31C360.39 208.31 361.86 209.47 363.24 210.31C364.333 210.829 365.544 211.049 366.75 210.95L366.69 212.68C366.69 213.4 366.49 213.43 365.86 213.47L364.92 213.54C364.92 213.54 362.6 216.32 367.11 216.85C373.84 217.65 377.45 214.27 377.45 214.27L375.88 214.05C374.71 213.87 374.39 213.46 374.28 212.49Z" fill="#FFA8A7"/>
<path d="M368.41 205.54L365.77 206.43C365.82 206.607 365.905 206.772 366.021 206.915C366.137 207.058 366.28 207.176 366.443 207.262C366.606 207.348 366.784 207.401 366.968 207.416C367.151 207.431 367.335 207.408 367.51 207.35C367.868 207.227 368.163 206.968 368.331 206.629C368.499 206.291 368.528 205.899 368.41 205.54V205.54Z" fill="#B16668"/>
<path d="M368.25 206.16C367.897 206.157 367.555 206.275 367.279 206.496C367.004 206.716 366.814 207.025 366.74 207.37C366.99 207.45 367.26 207.45 367.51 207.37C367.763 207.285 367.986 207.13 368.154 206.923C368.323 206.715 368.429 206.465 368.46 206.2L368.25 206.16Z" fill="#F28F8F"/>
<path d="M366.32 200L365.95 204.48L363.41 203.74C364.021 202.251 365.027 200.958 366.32 200V200Z" fill="#F28F8F"/>
<path d="M361.28 200L363.05 199.18C363.005 199.061 362.935 198.953 362.845 198.862C362.756 198.771 362.648 198.7 362.53 198.653C362.411 198.606 362.284 198.584 362.157 198.589C362.03 198.593 361.905 198.624 361.79 198.68C361.67 198.733 361.561 198.809 361.471 198.904C361.38 199 361.309 199.112 361.261 199.234C361.214 199.357 361.191 199.488 361.194 199.619C361.198 199.75 361.227 199.88 361.28 200Z" fill="#263238"/>
<path d="M369.88 199.84L368.12 198.92C368.24 198.692 368.443 198.519 368.687 198.437C368.931 198.355 369.197 198.371 369.43 198.48C369.55 198.538 369.657 198.62 369.745 198.721C369.833 198.821 369.9 198.938 369.942 199.065C369.984 199.192 370 199.326 369.989 199.459C369.979 199.592 369.942 199.721 369.88 199.84V199.84Z" fill="#263238"/>
<path d="M363.4 201.15C363.42 201.366 363.354 201.58 363.218 201.748C363.082 201.917 362.885 202.025 362.67 202.05C362.565 202.062 362.458 202.054 362.356 202.025C362.254 201.996 362.159 201.947 362.077 201.881C361.994 201.815 361.925 201.733 361.874 201.64C361.823 201.547 361.791 201.445 361.78 201.34C361.76 201.123 361.827 200.907 361.966 200.738C362.104 200.57 362.303 200.463 362.52 200.44C362.625 200.425 362.732 200.431 362.835 200.459C362.937 200.487 363.033 200.536 363.115 200.603C363.198 200.669 363.266 200.752 363.315 200.846C363.364 200.941 363.393 201.044 363.4 201.15V201.15Z" fill="#263238"/>
<path d="M369.32 201.26C369.335 201.476 369.266 201.689 369.128 201.857C368.991 202.024 368.795 202.132 368.58 202.16C368.475 202.172 368.369 202.164 368.268 202.135C368.167 202.106 368.072 202.056 367.99 201.99C367.908 201.924 367.841 201.842 367.791 201.749C367.741 201.657 367.71 201.555 367.7 201.45C367.683 201.235 367.749 201.021 367.885 200.854C368.021 200.686 368.216 200.578 368.43 200.55C368.535 200.536 368.643 200.544 368.745 200.572C368.847 200.6 368.943 200.649 369.026 200.716C369.109 200.782 369.178 200.864 369.229 200.958C369.279 201.051 369.31 201.154 369.32 201.26V201.26Z" fill="#263238"/>
<path d="M366.74 210.93C368.518 210.773 370.249 210.277 371.84 209.47C372.546 209.043 373.109 208.417 373.46 207.67C373.427 208.205 373.28 208.726 373.028 209.199C372.776 209.671 372.425 210.084 372 210.41C370.38 211.66 366.69 212.3 366.69 212.3L366.74 210.93Z" fill="#F28F8F"/>
<path d="M361.38 192.86C361.201 193.463 361.142 194.096 361.208 194.722C361.274 195.348 361.463 195.955 361.764 196.508C362.065 197.061 362.472 197.549 362.962 197.944C363.452 198.339 364.016 198.633 364.62 198.81C364.065 197.863 363.873 196.747 364.08 195.67C364.08 195.67 367.23 201.67 373.92 200.04L372.77 193.9C369.67 191.84 364.9 190.35 361.38 192.86Z" fill="#37474F"/>
<path d="M373.83 247.15C373.83 246.98 374.02 246.94 374.17 246.91C374.49 246.84 374.8 246.78 375.11 246.69C375.596 246.542 376.071 246.359 376.53 246.14C377.182 245.895 377.851 245.695 378.53 245.54C378.86 245.46 379.34 245.39 379.67 245.33C380.3 245.22 380.6 244.89 381.26 243.97C381.703 243.202 382.097 242.407 382.44 241.59C384.23 241.51 386.99 243.54 387.2 245.54C387.2 245.54 386.66 246.14 386 246.84C385.335 247.549 384.848 248.406 384.58 249.34C384.159 250.676 383.441 251.9 382.48 252.92C381.343 252.787 380.265 252.343 379.363 251.638C378.462 250.932 377.772 249.992 377.37 248.92C377.52 248.72 377.86 248.24 377.32 248.21H376.86C376.5 248.21 376.14 248.27 375.79 248.27C375.329 248.323 374.864 248.239 374.45 248.03C374.13 247.84 373.74 247.56 373.83 247.15Z" fill="#FFA8A7"/>
<path d="M382.46 252.92C380.74 252.671 379.186 251.76 378.13 250.38C377.825 249.952 377.573 249.489 377.38 249C377.778 249.727 378.314 250.37 378.96 250.89C379.371 251.32 379.886 251.638 380.455 251.813C381.024 251.988 381.628 252.014 382.21 251.89C383.041 251.587 383.746 251.013 384.21 250.26C383.804 251.251 383.209 252.154 382.46 252.92V252.92Z" fill="#F28F8F"/>
<path d="M378.52 214.46C382.42 215 383.39 215.33 384.59 216.77C385.79 218.21 386.27 219.59 388.59 223.37C389.85 225.37 392.1 229.24 393.89 232.56C395.15 234.88 394.82 235.66 392.56 239.38C390.595 242.509 388.413 245.497 386.03 248.32C384.93 248.37 381.7 245.95 380.87 244.24L385.49 236.14L379.93 227.41C378.668 225.726 377.815 223.771 377.44 221.7C377 219.54 377.28 215.85 378.52 214.46Z" fill="#019444"/>
<path opacity="0.2" d="M378.52 214.46C382.42 215 383.39 215.33 384.59 216.77C385.79 218.21 386.27 219.59 388.59 223.37C389.85 225.37 392.1 229.24 393.89 232.56C395.15 234.88 394.82 235.66 392.56 239.38C390.595 242.509 388.413 245.497 386.03 248.32C384.93 248.37 381.7 245.95 380.87 244.24L385.49 236.14L379.93 227.41C378.668 225.726 377.815 223.771 377.44 221.7C377 219.54 377.28 215.85 378.52 214.46Z" fill="black"/>
</svg>
