<svg width="280" height="280" viewBox="0 0 280 280" fill="none" xmlns="http://www.w3.org/2000/svg">
<path d="M200.2 94.8584C209.647 115.769 228.385 129.293 241.534 147.498C253.646 164.231 257.6 187.566 246.96 206.136C234.791 227.321 209.048 224.694 189.146 217.84C178.758 214.262 167.21 207.166 155.966 207.166C140.521 207.166 121.313 227.623 90.4456 226.766C67.9168 226.167 41.2384 220.993 32.48 197.12C21.5152 167.188 50.624 144.054 67.0208 123.228C78.0976 109.155 85.1592 92.4728 96.4152 78.5232C103.83 69.3336 113.73 59.7688 125.591 57.484C139.546 54.7904 153.502 54.8576 166.975 59.9032C184.139 66.3376 192.926 78.7528 200.2 94.8584Z" fill="#019444"/>
<path opacity="0.7" d="M200.2 94.8584C209.647 115.769 228.385 129.293 241.534 147.498C253.646 164.231 257.6 187.566 246.96 206.136C234.791 227.321 209.048 224.694 189.146 217.84C178.758 214.262 167.21 207.166 155.966 207.166C140.521 207.166 121.313 227.623 90.4456 226.766C67.9168 226.167 41.2384 220.993 32.48 197.12C21.5152 167.188 50.624 144.054 67.0208 123.228C78.0976 109.155 85.1592 92.4728 96.4152 78.5232C103.83 69.3336 113.73 59.7688 125.591 57.484C139.546 54.7904 153.502 54.8576 166.975 59.9032C184.139 66.3376 192.926 78.7528 200.2 94.8584Z" fill="white"/>
<path d="M150.461 83.5968L153.821 82.0512L153.104 77.9912L149.369 77.7C148.894 76.4487 148.267 75.2601 147.504 74.1608L149.43 70.9128L146.513 67.9952L143.231 69.9384C141.347 68.66 139.216 67.7901 136.976 67.3848L136.08 63.644H131.953L131.006 67.4072C129.726 67.6514 128.48 68.0481 127.294 68.5888L124.32 66.0352L120.96 68.404L122.354 72.0496C121.447 72.9796 120.65 74.0112 119.98 75.124L116.099 74.7264L114.688 78.6016L117.902 80.7856C117.749 81.6903 117.672 82.6063 117.673 83.524C117.673 83.916 117.673 84.3024 117.718 84.6832L114.358 86.5704L115.427 90.5576L119.258 90.5072C119.821 91.708 120.528 92.8362 121.363 93.8672L119.683 97.3L122.847 99.9544L125.91 97.7592C127.072 98.4278 128.311 98.9507 129.601 99.316L130.211 103.012L134.322 103.37L135.565 99.8704C136.913 99.7507 138.241 99.4628 139.518 99.0136L142.111 101.651L145.684 99.5904L144.704 96.0344C145.738 95.1539 146.659 94.1496 147.448 93.044L151.082 93.7104L152.824 89.9696L149.974 87.6232C150.302 86.3064 150.466 84.9539 150.461 83.5968V83.5968ZM144.357 83.524C144.357 85.5619 143.752 87.5541 142.62 89.2486C141.488 90.9431 139.879 92.2637 137.996 93.0436C136.113 93.8235 134.041 94.0276 132.043 93.63C130.044 93.2324 128.208 92.251 126.767 90.81C125.326 89.369 124.344 87.533 123.947 85.5342C123.549 83.5354 123.753 81.4636 124.533 79.5808C125.313 77.698 126.634 76.0887 128.328 74.9565C130.023 73.8243 132.015 73.22 134.053 73.22C136.786 73.22 139.406 74.3056 141.339 76.238C143.271 78.1703 144.357 80.7912 144.357 83.524V83.524Z" fill="#263238"/>
<path d="M150.461 81.5136L153.821 79.9736L153.104 75.908L149.369 75.6168C148.895 74.3667 148.269 73.1798 147.504 72.0832L149.43 68.8296L146.513 65.912L143.231 67.8608C141.348 66.5805 139.217 65.7105 136.976 65.3072L136.08 61.5608H131.953L131.006 65.3296C129.726 65.5719 128.48 65.9667 127.294 66.5056L124.32 63.9576L120.96 66.3208L122.354 69.972C121.445 70.8997 120.648 71.9317 119.98 73.0464L116.099 72.6432L114.688 76.524L117.902 78.7024C117.75 79.6072 117.673 80.5232 117.673 81.4408C117.673 81.8328 117.673 82.2192 117.718 82.6056L114.358 84.4928L115.36 88.48L119.19 88.4296C119.754 89.6306 120.461 90.7588 121.296 91.7896L119.616 95.228L122.78 97.8768L125.843 95.6816C127.003 96.3544 128.243 96.8793 129.534 97.244L130.144 100.934L134.254 101.298L135.498 97.7984C136.846 97.6787 138.174 97.3909 139.451 96.9416L142.044 99.5736L145.617 97.5128L144.637 93.9568C145.672 93.0777 146.594 92.0732 147.381 90.9664L151.015 91.6384L152.757 87.8976L149.906 85.5456C150.259 84.23 150.445 82.8755 150.461 81.5136V81.5136ZM144.357 81.4408C144.353 83.478 143.746 85.4685 142.612 87.1608C141.478 88.8531 139.867 90.1711 137.984 90.9485C136.101 91.7258 134.03 91.9274 132.032 91.528C130.035 91.1285 128.2 90.1458 126.761 88.7041C125.321 87.2624 124.342 85.4264 123.946 83.428C123.549 81.4297 123.754 79.3588 124.535 77.477C125.315 75.5951 126.636 73.9868 128.33 72.8554C130.024 71.7239 132.016 71.12 134.053 71.12C135.407 71.12 136.749 71.3871 138 71.9059C139.251 72.4248 140.388 73.1853 141.345 74.1439C142.302 75.1025 143.06 76.2404 143.577 77.4925C144.094 78.7445 144.359 80.0862 144.357 81.4408V81.4408Z" fill="#019444" stroke="#263238" stroke-width="1.08337" stroke-linecap="round" stroke-linejoin="round"/>
<path d="M144.407 140.778L150.427 138.04L149.156 130.816L142.514 130.295C141.669 128.071 140.554 125.959 139.194 124.006L142.615 118.227L137.43 113.042L131.6 116.48C128.25 114.208 124.462 112.663 120.478 111.944L118.798 105.286H111.44L109.76 112.006C107.485 112.437 105.27 113.141 103.163 114.1L97.9216 109.564L91.9128 113.77L94.388 120.26C92.7678 121.906 91.3485 123.739 90.16 125.72L83.2552 125.009L80.7464 131.902L86.464 135.783C86.1894 137.393 86.0507 139.022 86.0496 140.655C86.0496 141.35 86.0832 142.033 86.1336 142.716L80.1136 146.076L82.012 153.16L88.8272 153.07C89.8312 155.205 91.0911 157.21 92.5792 159.04L89.6392 165.144L95.2392 169.859L100.682 165.939C102.749 167.127 104.953 168.057 107.246 168.711L108.36 175.28L115.668 175.918L117.874 169.68C120.273 169.466 122.636 168.954 124.908 168.157L129.517 172.844L135.873 169.176L134.126 162.854C135.967 161.289 137.608 159.502 139.009 157.534L145.466 158.726L148.562 152.079L143.522 147.896C144.112 145.569 144.409 143.178 144.407 140.778ZM133.56 140.655C133.56 144.278 132.486 147.82 130.473 150.832C128.46 153.844 125.599 156.192 122.252 157.578C118.905 158.965 115.222 159.328 111.669 158.621C108.116 157.914 104.852 156.169 102.29 153.608C99.7281 151.046 97.9835 147.782 97.2768 144.229C96.57 140.675 96.9327 136.992 98.3191 133.645C99.7055 130.298 102.053 127.437 105.066 125.425C108.078 123.412 111.62 122.338 115.242 122.338C120.1 122.339 124.758 124.269 128.193 127.704C131.628 131.139 133.559 135.798 133.56 140.655Z" fill="#263238"/>
<path d="M144.407 137.962L150.427 135.218L149.156 127.994L142.514 127.478C141.669 125.254 140.554 123.142 139.194 121.19L142.615 115.41L137.43 110.219L131.6 113.68C128.25 111.407 124.462 109.86 120.478 109.138L118.798 102.486H111.44L109.76 109.206C107.485 109.637 105.27 110.341 103.163 111.3L97.9216 106.764L91.9128 110.97L94.388 117.46C92.7713 119.109 91.3558 120.943 90.1712 122.926L83.272 122.192L80.7632 129.086L86.4808 132.966C86.2064 134.574 86.0678 136.202 86.0664 137.833C86.0664 138.527 86.1 139.216 86.1504 139.899L80.1304 143.259L82.0288 150.349L88.844 150.259C89.8426 152.386 91.0969 154.383 92.5792 156.206L89.6392 162.316L95.2392 167.031L100.682 163.111C102.748 164.299 104.953 165.228 107.246 165.878L108.36 172.48L115.668 173.124L117.874 166.88C120.273 166.666 122.636 166.154 124.908 165.357L129.517 170.044L135.873 166.376L134.126 160.054C135.967 158.489 137.608 156.702 139.009 154.734L145.466 155.926L148.562 149.274L143.522 145.096C144.113 142.764 144.411 140.367 144.407 137.962V137.962ZM133.56 137.833C133.56 141.456 132.486 144.997 130.473 148.01C128.46 151.022 125.599 153.37 122.252 154.756C118.905 156.142 115.222 156.505 111.669 155.798C108.116 155.092 104.852 153.347 102.29 150.785C99.7281 148.224 97.9835 144.96 97.2767 141.406C96.57 137.853 96.9327 134.17 98.3191 130.823C99.7055 127.476 102.053 124.615 105.066 122.602C108.078 120.59 111.619 119.515 115.242 119.515C120.1 119.515 124.76 121.445 128.195 124.88C131.63 128.316 133.56 132.975 133.56 137.833V137.833Z" fill="#019444" stroke="#263238" stroke-width="1.08337" stroke-linecap="round" stroke-linejoin="round"/>
<path d="M210.79 156.75L216.81 154.006L215.533 146.782L208.88 146.266C208.034 144.052 206.923 141.947 205.57 140L208.992 134.215L203.806 129.03L197.982 132.49C194.631 130.217 190.84 128.67 186.855 127.949L185.175 121.296H177.839L176.159 128.016C173.884 128.447 171.669 129.15 169.562 130.11L164.315 125.569L158.306 129.78L160.782 136.27C159.168 137.921 157.755 139.755 156.57 141.736L149.66 141.025L147.151 147.918L152.88 151.76C152.61 153.368 152.474 154.996 152.471 156.626C152.471 157.321 152.505 158.01 152.55 158.687L146.535 162.047L148.4 169.12L155.21 169.03C156.212 171.156 157.468 173.153 158.95 174.978L156.01 181.087L161.61 185.802L167.059 181.882C169.122 183.085 171.327 184.026 173.622 184.682L174.742 191.251L182.022 191.89L184.223 185.674C186.622 185.458 188.984 184.946 191.257 184.15L195.871 188.832L202.222 185.164L200.48 178.847C202.32 177.281 203.96 175.495 205.363 173.527L211.842 174.72L214.945 168.073L209.905 163.89C210.492 161.555 210.789 159.157 210.79 156.75V156.75ZM199.92 156.621C199.923 160.245 198.851 163.789 196.84 166.804C194.828 169.819 191.968 172.169 188.62 173.558C185.272 174.946 181.588 175.31 178.033 174.604C174.478 173.898 171.213 172.153 168.65 169.59C166.087 167.027 164.342 163.762 163.636 160.207C162.93 156.652 163.294 152.968 164.682 149.62C166.071 146.272 168.421 143.412 171.436 141.4C174.451 139.389 177.995 138.317 181.619 138.32C186.472 138.323 191.125 140.252 194.557 143.683C197.988 147.115 199.917 151.768 199.92 156.621V156.621Z" fill="#263238"/>
<path d="M210.79 153.933L216.81 151.189L215.533 143.965L208.88 143.45C208.03 141.224 206.913 139.111 205.554 137.155L208.975 131.376L203.79 126.19L197.966 129.651C194.614 127.378 190.824 125.831 186.838 125.11L185.158 118.457H177.822L176.142 125.177C173.867 125.608 171.653 126.311 169.546 127.271L164.298 122.73L158.29 126.941L160.765 133.431C159.15 135.08 157.737 136.915 156.554 138.897L149.643 138.186L147.14 145.04L152.88 148.96C152.61 150.57 152.473 152.2 152.471 153.832C152.471 154.526 152.505 155.21 152.55 155.893L146.535 159.253L148.4 166.32L155.21 166.236C156.214 168.361 157.469 170.358 158.95 172.183L156.01 178.293L161.61 183.008L167.059 179.088C169.126 180.276 171.33 181.207 173.622 181.86L174.742 188.429L182.022 189.067L184.24 182.851C186.639 182.638 189.002 182.126 191.274 181.328L195.888 186.015L202.238 182.347L200.497 176.03C202.336 174.463 203.976 172.677 205.38 170.71L211.842 171.92L214.945 165.273L209.905 161.09C210.493 158.749 210.79 156.346 210.79 153.933V153.933ZM199.92 153.804C199.92 157.427 198.846 160.968 196.833 163.981C194.82 166.993 191.959 169.341 188.612 170.727C185.265 172.114 181.582 172.476 178.029 171.77C174.476 171.063 171.212 169.318 168.65 166.756C166.088 164.195 164.344 160.931 163.637 157.378C162.93 153.824 163.293 150.141 164.679 146.794C166.066 143.447 168.413 140.586 171.426 138.573C174.438 136.561 177.98 135.486 181.602 135.486C184.008 135.486 186.39 135.959 188.613 136.879C190.836 137.8 192.855 139.149 194.557 140.85C196.258 142.551 197.607 144.571 198.527 146.793C199.447 149.016 199.921 151.398 199.92 153.804V153.804Z" fill="#019444" stroke="#263238" stroke-width="1.08337" stroke-linecap="round" stroke-linejoin="round"/>
<path d="M202.866 171.287C202.933 171.762 202.826 172.246 202.563 172.648C202.11 173.555 201.354 173.858 201.807 174.328C202.266 174.701 202.775 175.006 203.319 175.235C203.319 175.235 203.622 178.259 204.999 179.62C206.377 180.981 209.535 179.318 209.535 179.318L211.047 182.039L214.676 179.922C214.676 179.922 213.769 179.015 212.71 175.84C211.652 172.665 209.989 170.397 206.814 170.094C203.638 169.792 202.866 171.287 202.866 171.287Z" fill="white" stroke="#263238" stroke-miterlimit="10"/>
<path d="M194.242 185.802L193.334 183.383C192.881 182.174 191.822 181.703 190.613 181.703C189.403 181.703 188.798 180.494 188.194 180.645C187.589 180.796 188.496 181.703 188.95 182.157C189.265 182.457 189.622 182.712 190.008 182.913C188.734 182.815 187.469 182.612 186.228 182.308C184.548 181.854 184.867 182.459 186.077 183.518C187.286 184.576 189.101 185.634 189.706 185.634C190.424 185.721 191.132 185.872 191.822 186.088L192.64 187.6L194.242 185.802Z" fill="white" stroke="#263238" stroke-miterlimit="10"/>
<path d="M210.711 166.062L208.191 165.502C206.926 165.228 206.326 164.242 206.158 163.044C205.99 161.846 204.702 161.42 204.764 160.804C204.826 160.188 205.884 160.95 206.371 161.364C206.711 161.635 207.013 161.952 207.267 162.305C206.994 161.057 206.62 159.834 206.147 158.648C205.458 157.063 206.102 157.282 207.323 158.329C208.544 159.376 209.843 161.022 209.933 161.616C210.049 162.087 210.267 162.526 210.571 162.904L211.579 164.164L210.711 166.062Z" fill="white" stroke="#263238" stroke-miterlimit="10"/>
<path d="M192.73 198.957L191.822 186.105C192.178 185.879 192.58 185.734 192.998 185.682C193.416 185.63 193.841 185.671 194.242 185.802L198.162 196.84C198.162 196.84 195.149 201.074 192.73 198.957Z" fill="#019444" stroke="#263238" stroke-miterlimit="10"/>
<path d="M204.075 209.39C204.075 209.39 198.475 207.424 198.022 209.692C197.568 211.96 204.68 214.687 207.099 214.536C209.518 214.385 207.25 210.605 204.075 209.39Z" fill="white" stroke="#263238" stroke-miterlimit="10"/>
<path d="M213.92 204.854C213.92 204.854 204.999 199.254 202.58 198.05C200.161 196.846 197.434 197.142 196.375 199.562C195.317 201.981 205.895 211.814 208.326 215.141C210.756 218.467 216.642 219.374 219.666 219.374C222.69 219.374 227.982 216.048 228.586 213.175C229.191 210.302 228.889 200.62 228.133 198.055C227.377 195.49 225.562 193.822 223.446 196.241C221.329 198.66 216.02 205.005 213.92 204.854Z" fill="#263238"/>
<path d="M213.326 205.111C213.326 205.111 210.459 212.061 210.79 214.379" stroke="white" stroke-width="0.5" stroke-miterlimit="10"/>
<path d="M225.904 204.12C225.904 204.12 228.329 206.987 228.435 209.854" stroke="white" stroke-width="0.5" stroke-miterlimit="10"/>
<path d="M214.81 179.15C214.81 179.15 211.484 180.964 210.123 182.476C208.762 183.988 195.003 196.235 193.637 196.991C192.27 197.747 192.125 200.771 194.544 201.074C196.963 201.376 208.762 195.026 208.762 195.026C208.762 195.026 207.704 197.747 208.762 198.654C209.821 199.562 212.542 200.334 212.845 201.527C213.147 202.72 212.694 205.156 214.206 206.366C215.718 207.575 220.405 208.046 223.278 205.761C226.15 203.476 225.999 198.05 225.394 194.421C224.79 190.792 225.848 177.486 225.092 174.462C224.336 171.438 210.728 164.181 210.728 164.181L210.123 166.449C210.123 166.449 219.195 173.102 219.346 173.729C219.498 174.356 214.81 179.15 214.81 179.15Z" fill="#019444" stroke="#263238" stroke-miterlimit="10"/>
<path d="M208.762 195.026L214.262 193.217" stroke="#263238" stroke-miterlimit="10" stroke-linecap="round"/>
<path d="M209.362 194.656L214.262 196.241" stroke="#263238" stroke-miterlimit="10" stroke-linecap="round"/>
<path d="M207.704 164.03C206.93 163.464 205.99 163.172 205.032 163.199C204.074 163.226 203.152 163.572 202.412 164.181C199.539 166.298 201.354 169.473 202.11 170.38L202.866 171.287C202.866 171.287 205.134 175.37 207.402 177.033C209.67 178.696 214.81 179.15 214.81 179.15C214.81 179.15 216.776 181.115 216.49 186.71C216.205 192.304 214.222 195.328 217.7 199.864C221.178 204.4 227.36 206.08 230.384 201.376C233.408 196.672 234.164 191.856 230.535 187.012C226.906 182.168 220.858 180.057 219.195 179.301C217.532 178.545 216.927 177.335 216.927 176.73C216.927 176.126 219.649 169.17 216.927 165.239C214.206 161.308 210.123 162.663 207.704 164.03Z" fill="#263238"/>
<path d="M207.043 164.746C207.043 164.746 204.837 163.974 204.394 167.059C203.952 170.145 205.89 175.487 210.353 177.318" stroke="white" stroke-width="0.5" stroke-miterlimit="10" stroke-linecap="round"/>
<path d="M206.046 169.378C206.947 171.611 208.292 173.638 210 175.336C211.752 176.953 213.937 178.025 216.289 178.422" stroke="white" stroke-width="0.5" stroke-miterlimit="10" stroke-linecap="round"/>
<path d="M217.521 180.74C217.521 180.74 221.598 185.259 220.058 191.218C218.518 197.176 222.04 203.235 226.565 202.798C231.09 202.362 231.084 196.078 231.084 196.078" stroke="white" stroke-width="0.5" stroke-miterlimit="10" stroke-linecap="round"/>
<path d="M216.748 179.855C216.748 179.855 219.173 179.967 222.813 184.929C226.453 189.89 224.246 194.303 224.689 198.055C225.131 201.807 228.329 201.141 229.102 199.595" stroke="white" stroke-width="0.5" stroke-miterlimit="10" stroke-linecap="round"/>
<path d="M203.756 85.5624C200.794 81.928 195.675 81.2168 191.873 78.6296C189.328 76.8914 186.896 74.9929 184.593 72.9456H184.419C183.238 71.6807 181.655 70.8635 179.939 70.6328C176.019 70.3024 172.161 71.5736 172.502 76.0088C172.278 76.1544 172.06 76.3056 171.836 76.4792C171.47 76.5295 171.112 76.6293 170.772 76.776C168.034 77.9296 167.821 83.608 169.865 86.2064C170.951 87.584 173.079 88.7488 175.034 89.3984V89.46C175.034 89.46 175.202 90.02 180.886 90.58C186.57 91.14 188.233 93.38 187.975 96.1072C187.877 97.1241 187.999 98.1501 188.331 99.1162C188.663 100.082 189.199 100.966 189.902 101.707C190.59 102.676 191.71 103.438 193.508 103.88C203.907 106.4 210 93.2064 203.756 85.5624Z" fill="#263238"/>
<path d="M174.933 77.784C177.619 80.7023 181.038 82.8486 184.834 84C190.848 85.68 197.439 83.6528 201.365 86.4472C205.29 89.2416 205.346 92.12 204.977 93.7272" stroke="white" stroke-width="0.5" stroke-miterlimit="10" stroke-linecap="round"/>
<path d="M173.908 75.9024C175.613 75.1066 177.537 74.9093 179.368 75.3424C182.386 76.0704 184.447 79.9064 189.762 82.0624C195.076 84.2184 197.977 82.6224 200.598 84.084" stroke="white" stroke-width="0.5" stroke-miterlimit="10" stroke-linecap="round"/>
<path d="M173.874 78.5456C173.083 79.1049 172.437 79.8458 171.991 80.7061C171.544 81.5665 171.311 82.5212 171.31 83.4904C171.31 86.8 173.824 87.2592 173.824 87.2592" stroke="white" stroke-width="0.5" stroke-miterlimit="10" stroke-linecap="round"/>
<path d="M173.04 78.0304C173.04 78.0304 168.846 80.388 169.154 82.9528C169.211 83.6622 169.458 84.3432 169.867 84.9252C170.277 85.5071 170.835 85.9689 171.483 86.2624" stroke="white" stroke-width="0.5" stroke-miterlimit="10" stroke-linecap="round"/>
<path d="M176.4 98.868C176.4 98.868 172.872 101.959 171.998 105.739C171.125 109.519 170.318 123.295 171.634 124.55C172.95 125.804 174.468 125.205 175.398 124.152C176.327 123.099 180.964 108.354 180.964 108.354L182.291 108.696C182.291 108.696 187.6 120.624 188.16 121.99C188.72 123.357 190.898 125.569 193.071 124.326C195.244 123.082 193.631 113.686 192.511 110.202C191.391 106.719 188.451 98.0896 186.122 97.1712C183.792 96.2528 177.548 97.0424 176.4 98.868Z" fill="#263238"/>
<path d="M175.84 100.24C175.84 100.24 178.69 104.53 182.218 103.802C185.746 103.074 186.743 98.9128 186.603 98.0224C186.463 97.132 175.84 100.24 175.84 100.24Z" fill="#019444" stroke="#263238" stroke-miterlimit="10"/>
<path d="M178.64 85.4C178.64 85.4 170.677 88.088 169.176 90.1432C167.675 92.1984 165.553 106.73 165.256 107.318C164.959 107.906 160.776 122.03 160.776 122.03L163.117 121.85C163.117 121.85 170.05 107.85 170.324 107.257C170.598 106.663 172.682 97.7872 172.682 97.7872C172.682 97.7872 173.628 100.374 175.134 100.688C176.641 101.002 180.734 100.363 183.574 99.9264C186.413 99.4896 187.309 99.3664 188.362 97.9104C189.414 96.4544 189.263 94.3096 189.263 94.3096L193.911 104.334L190.764 120.484L193.094 121.397C193.094 121.397 197.932 106.809 198.094 105.504C198.257 104.199 194.79 94.7296 192.494 90.5296C190.198 86.3296 189.694 86.4136 187.522 85.4896C185.349 84.5656 178.64 85.4 178.64 85.4Z" fill="#019444" stroke="#263238" stroke-miterlimit="10"/>
<path d="M178.024 89.5048C178.024 89.5048 178.478 93.6208 180.186 94.0856C181.894 94.5504 181.278 89.3648 181.278 89.3648L178.024 89.5048Z" fill="white" stroke="#263238" stroke-miterlimit="10"/>
<path d="M176.809 81.3624C176.205 82.5144 175.302 83.4819 174.194 84.1624C174.6 85.6713 175.279 87.0929 176.198 88.3568C178.707 91.6104 180.006 91.7728 181.294 90.664C182.381 89.7232 183.299 86.8448 183.299 84.364C177.738 82.8184 176.809 81.3624 176.809 81.3624Z" fill="white" stroke="#263238" stroke-miterlimit="10"/>
<path d="M175.426 85.0472C175.611 84.8309 175.852 84.6684 176.121 84.5768C176.391 84.4851 176.681 84.4678 176.96 84.5264C177.979 84.7056 178.142 86.044 178.394 86.8728C178.646 87.7016 178.746 89.2864 179.866 87.948" stroke="#263238" stroke-width="0.5" stroke-linecap="round" stroke-linejoin="round"/>
<path d="M179.295 84.4144C179.295 84.4144 180.236 83.0592 181.782 84.4144" stroke="#263238" stroke-width="0.5" stroke-linecap="round" stroke-linejoin="round"/>
<path d="M178.83 89.3368C178.83 89.3368 179.95 89.8968 180.656 88.9728" stroke="#263238" stroke-width="0.5" stroke-linecap="round" stroke-linejoin="round"/>
<path d="M176.338 85.8648C176.338 85.8648 176.898 86.4808 177.548 85.68" stroke="#263238" stroke-width="0.5" stroke-linecap="round" stroke-linejoin="round"/>
<path d="M180.085 85.4616C180.197 85.5601 180.327 85.6353 180.468 85.6828C180.61 85.7303 180.759 85.7492 180.908 85.7382C181.056 85.7273 181.201 85.6868 181.334 85.6191C181.467 85.5514 181.585 85.4579 181.681 85.344" stroke="#263238" stroke-width="0.5" stroke-linecap="round" stroke-linejoin="round"/>
<path d="M160.843 122.03C160.131 122.875 159.543 123.818 159.096 124.83C158.726 125.978 157.455 128.363 158.346 128.223C159.236 128.083 160.423 125.171 160.423 125.171C161.296 124.934 162.101 124.497 162.775 123.894C163.002 123.607 163.158 123.27 163.229 122.911C163.3 122.551 163.285 122.18 163.184 121.828L160.843 122.03Z" fill="white" stroke="#263238" stroke-miterlimit="10"/>
<path d="M190.831 120.484C190.831 120.484 189.151 122.388 189.028 122.948C188.905 123.508 188.815 126.258 188.815 126.258C188.815 126.258 189.073 126.762 189.7 126.118C189.875 125.976 190.017 125.797 190.114 125.593C190.211 125.39 190.261 125.167 190.26 124.942C190.26 124.942 190.03 126.98 190.316 127.663C190.602 128.346 192.069 127.21 192.489 126.42C192.909 125.63 193.172 121.38 193.172 121.38L190.831 120.484Z" fill="white" stroke="#263238" stroke-miterlimit="10"/>
<path d="M67.676 173.533C67.676 173.533 73.1192 174.894 71.1536 175.801C69.188 176.708 65.408 176.859 63.3136 176.254C61.2192 175.65 60.8944 173.382 62.5576 173.079C64.2208 172.777 67.676 173.533 67.676 173.533Z" fill="white" stroke="#263238" stroke-linecap="round" stroke-linejoin="round"/>
<path d="M50.8928 191.072L45.1472 192.433L45.752 195.759L47.1128 196.062C47.1128 196.062 46.6592 199.982 47.264 201.662C47.8688 203.342 48.3224 206.349 49.504 205.895C50.6856 205.442 49.9576 199.091 50.4112 198.335C51.1039 197.425 51.8619 196.566 52.6792 195.765L51.1672 191.682L50.8928 191.072Z" fill="white" stroke="#263238" stroke-linecap="round" stroke-linejoin="round"/>
<path d="M47.2248 192.08C47.2248 192.08 47.9136 203.65 49.532 205.89" stroke="#263238" stroke-linecap="round" stroke-linejoin="round"/>
<path d="M61.628 174.591C61.628 174.591 72.3632 177.313 77.3528 179.732C82.3424 182.151 85.0696 185.78 82.0456 188.502C79.0216 191.223 66.0128 193.945 62.2328 195.003C58.4528 196.062 52.1024 197.243 52.1024 197.243L50.5848 190.557L64.1984 187.718L54.5216 183.938C54.5216 183.938 51.044 182.728 52.7072 179.099C54.3704 175.47 61.628 174.591 61.628 174.591Z" fill="#263238"/>
<path d="M64.1984 187.746C64.1984 187.746 72.5144 189.258 75.6896 189.258" stroke="white" stroke-width="0.5" stroke-miterlimit="10" stroke-linecap="round"/>
<path d="M63.896 173.23L67.5248 174.742C69.3635 172.913 71.514 171.426 73.8752 170.352C77.6552 168.672 82.0456 167.328 81.2896 162.943C80.5336 158.558 77.0504 157.954 73.5728 157.954H67.5248L63.896 173.23Z" fill="#263238"/>
<path d="M79.6096 135.29C79.6096 135.29 82.712 135.985 82.9696 135.632C83.2272 135.279 86.3296 134.03 86.94 133.739C87.5504 133.448 87.8976 132.759 87.2312 132.619C86.5648 132.479 83.5576 133.398 83.5576 133.398L85.484 130.682C85.484 130.682 88.4184 129.136 87.9144 128.554C87.4104 127.971 85.9824 128.554 85.2264 128.554C84.4704 128.554 81.8048 128.761 80.8472 129.741C79.8896 130.721 77.7224 133.246 77.7224 133.246L79.6096 135.29Z" fill="white" stroke="#263238" stroke-linecap="round" stroke-linejoin="round"/>
<path d="M73.6512 141.876L80.5336 135.929L78.0976 134.142L67.704 138.527C64.5568 139.384 60.9392 140.498 59.9648 141.327C58.1504 142.839 58.1504 147.678 58.1504 148.131C58.1504 148.585 55.44 152.964 51.6488 156.593C47.8576 160.222 41.8208 163.094 40.3088 164.433C38.7968 165.771 40.3088 175.778 44.6936 180.314C47.6077 183.215 50.9791 185.615 54.6728 187.421C54.6728 187.421 64.652 174.72 65.8728 172.452C67.0936 170.184 67.3848 169.725 67.3848 169.725C67.3848 169.725 71.1648 163.223 70.8624 161.258C70.56 159.292 70.4088 150.976 70.4088 149.162C70.4088 147.347 73.1304 143.416 73.584 142.055C73.5952 142.01 73.6232 141.943 73.6512 141.876Z" fill="#019444" stroke="#263238" stroke-linecap="round" stroke-linejoin="round"/>
<path d="M58.1504 148.126C58.1504 148.126 61.6056 143.494 64.5288 141.966" stroke="#263238" stroke-miterlimit="10" stroke-linecap="round"/>
<path d="M83.5576 139.356C83.8045 140.498 83.8557 141.674 83.7088 142.834C83.4064 144.194 84.9184 144.799 84.1624 145.404C83.4064 146.009 82.6504 146.765 82.6504 146.765L80.9704 150.091C80.5168 150.998 79.2904 152.208 78.2432 152.057C77.196 151.906 74.7656 150.091 73.8584 150.091C72.9512 150.091 70.6832 151.301 70.6832 151.301C70.6832 151.301 70.3808 146.765 70.3808 145.102C70.3808 143.438 72.3464 142.985 72.3464 142.985C72.3464 142.985 73.7072 140.112 75.5216 138.751C77.336 137.39 82.0456 137.239 83.5576 139.356Z" fill="white" stroke="#263238" stroke-linecap="round" stroke-linejoin="round"/>
<path d="M75.0848 147.974C75.0848 147.974 75.992 149.033 76.5968 149.033H77.2016C77.3953 149.709 77.6483 150.367 77.9576 150.998" stroke="#263238" stroke-linecap="round" stroke-linejoin="round"/>
<path d="M83.5576 142.24C83.2641 142.452 83.0183 142.722 82.836 143.035C82.6537 143.347 82.5389 143.695 82.4992 144.054" stroke="#263238" stroke-linecap="round" stroke-linejoin="round"/>
<path d="M75.0848 147.974C75.0848 147.974 72.8168 147.067 71.1648 143.741C69.5128 140.414 68.5944 136.181 72.6768 133.006C76.7592 129.83 80.3936 131.494 82.1968 132.098C84 132.703 86.884 134.215 85.8256 137.39C84.7672 140.566 79.9288 140.868 80.08 141.624C80.2312 142.38 81.76 143.864 80.836 144.194C79.912 144.525 79.016 145.102 79.016 145.555C79.016 146.009 78.8704 147.235 78.4112 147.235C77.952 147.235 76.5968 144.211 75.5384 145.118C74.48 146.026 75.0848 147.974 75.0848 147.974Z" fill="#263238"/>
<path d="M71.1536 143.741L72.24 150.847L74.508 155.837H69.8208C69.0258 153.395 68.3714 150.911 67.8608 148.394C67.685 147.45 67.7812 146.474 68.1381 145.582C68.495 144.69 69.098 143.917 69.8768 143.354L71.1536 143.741Z" fill="white" stroke="#263238" stroke-linecap="round" stroke-linejoin="round"/>
<path d="M93.8392 168.386C93.8392 168.386 95.2 165.514 95.6536 165.514C96.1072 165.514 98.98 163.834 99.5736 163.548C100.167 163.262 100.934 163.397 100.632 164.002C100.33 164.606 97.7592 166.421 97.7592 166.421L101.086 166.572C101.086 166.572 104.11 165.211 104.261 165.967C104.412 166.723 103.051 167.479 102.581 168.084C102.11 168.689 100.341 170.66 98.952 170.806C97.5632 170.951 94.2648 171.114 94.2648 171.114L93.8392 168.386Z" fill="white" stroke="#263238" stroke-linecap="round" stroke-linejoin="round"/>
<path d="M62.2328 164.606C62.2328 164.606 77.0504 178.674 78.7136 178.825C80.3768 178.976 95.0488 172.172 95.0488 172.172L93.8392 167.63L79.1728 170.99C79.1728 170.99 67.5248 156.016 66.4664 156.016C65.408 156.016 63.5936 157.528 63.5936 157.528" fill="#019444"/>
<path d="M62.2328 164.606C62.2328 164.606 77.0504 178.674 78.7136 178.825C80.3768 178.976 95.0488 172.172 95.0488 172.172L93.8392 167.63L79.1728 170.99C79.1728 170.99 67.5248 156.016 66.4664 156.016C65.408 156.016 63.5936 157.528 63.5936 157.528" stroke="#263238" stroke-linecap="round" stroke-linejoin="round"/>
<path d="M62.384 177.464C62.384 177.464 53.4632 183.064 51.3464 183.814C49.2296 184.565 48.16 185.024 48.16 185.024C48.16 185.024 49.5992 186.833 50.4 187.225C52.2648 188.16 54.6728 187.443 54.6728 187.443L62.384 177.464Z" fill="#019444" stroke="#263238" stroke-linecap="round" stroke-linejoin="round"/>
</svg>
