<svg width="50" height="50" viewBox="0 0 50 50" fill="none" xmlns="http://www.w3.org/2000/svg">
<path d="M49.1666 36.6666C49.174 41.6981 46.6497 46.3958 42.4499 49.1666H25.8833C19.9104 45.2103 17.569 37.5824 20.2938 30.9564C23.0185 24.3304 30.0486 20.5562 37.0768 21.9462C44.105 23.3361 49.1692 29.5022 49.1666 36.6666V36.6666Z" fill="#019444"/>
<path d="M34.1666 21.6665C33.7216 21.6665 33.2816 21.6882 32.8474 21.7265C39.2266 22.2246 44.5859 26.7179 46.1892 32.9123C47.7926 39.1068 45.2863 45.6359 39.9499 49.1665H42.4499C47.9623 45.51 50.4288 38.6741 48.5209 32.3403C46.6131 26.0065 40.7815 21.6701 34.1666 21.6665Z" fill="#15713F"/>
<path d="M34.1666 27.5V34.1667C33.0852 34.1675 32.1269 34.8635 31.7916 35.8917L25.45 33.8333C26.6788 30.0583 30.1967 27.5023 34.1666 27.5Z" fill="#D9D9D9"/>
<path d="M42.8834 33.8333L36.5417 35.8917C36.2065 34.8635 35.2482 34.1675 34.1667 34.1667V27.5C38.1367 27.5023 41.6546 30.0583 42.8834 33.8333Z" fill="#D9D9D9"/>
<path d="M43.3333 36.6668C43.3303 39.5997 41.9278 42.3551 39.5583 44.0835L35.6333 38.6918C36.2833 38.2223 36.6679 37.4687 36.6666 36.6668C36.6685 36.4033 36.6263 36.1414 36.5416 35.8918L42.8833 33.8335C43.1824 34.7481 43.3343 35.7045 43.3333 36.6668Z" fill="#D9D9D9"/>
<path d="M42.8833 33.8335L40.5899 34.5777C41.2682 37.4563 40.5098 40.4851 38.5549 42.7043L39.5549 44.0835C41.9257 42.3558 43.3295 39.6003 43.3333 36.6668C43.3343 35.7045 43.1824 34.7481 42.8833 33.8335V33.8335Z" fill="#ABABAB"/>
<path d="M39.5582 44.0836C36.3425 46.4169 31.9907 46.4169 28.7749 44.0836L32.6999 38.6919C33.5749 39.3258 34.7582 39.3258 35.6332 38.6919L39.5582 44.0836Z" fill="#D9D9D9"/>
<path d="M32.7 38.6918L28.775 44.0835C26.4055 42.3551 25.003 39.5997 25 36.6668C24.999 35.7045 25.1509 34.7481 25.45 33.8335L31.7917 35.8918C31.707 36.1414 31.6648 36.4033 31.6667 36.6668C31.6654 37.4687 32.05 38.2223 32.7 38.6918Z" fill="#D9D9D9"/>
<path d="M36.6666 36.6667C36.6678 37.4686 36.2833 38.2222 35.6332 38.6917C34.7582 39.3256 33.5749 39.3256 32.6999 38.6917C32.0499 38.2222 31.6653 37.4686 31.6666 36.6667C31.6647 36.4032 31.7069 36.1413 31.7916 35.8917C32.1288 34.8658 33.0866 34.1724 34.1666 34.1724C35.2465 34.1724 36.2044 34.8658 36.5416 35.8917C36.6262 36.1413 36.6684 36.4032 36.6666 36.6667V36.6667Z" fill="#C0C5E3"/>
<path d="M30.8333 15.8331C30.8385 18.1409 30.3049 20.418 29.2749 22.4831C25.5468 23.7749 22.4759 26.4807 20.7249 30.0165C14.5585 32.1437 7.72424 30.0419 3.81882 24.8172C-0.086602 19.5925 -0.167763 12.4428 3.61805 7.13084C7.40385 1.81884 14.1887 -0.437552 20.4018 1.54914C26.6149 3.53584 30.8318 9.31014 30.8333 15.8331Z" fill="#1DAEEF"/>
<path d="M15.8333 0.833496C15.4116 0.833496 14.9999 0.862663 14.5833 0.896829C22.353 1.54337 28.3306 8.03687 28.3333 15.8335C28.3385 18.1412 27.8049 20.4183 26.7749 22.4835C23.0468 23.7753 19.9759 26.481 18.2249 30.0168C17.0691 30.4128 15.8695 30.6669 14.6524 30.7735C15.0433 30.8043 15.4349 30.8335 15.8333 30.8335C17.4977 30.8335 19.1507 30.5575 20.7249 30.0168C22.4759 26.481 25.5468 23.7753 29.2749 22.4835C30.3049 20.4183 30.8385 18.1412 30.8333 15.8335C30.8333 11.8553 29.2529 8.03994 26.4399 5.22689C23.6268 2.41385 19.8115 0.833496 15.8333 0.833496V0.833496Z" fill="#166E96"/>
<path d="M15.8334 6.6665V13.3332C14.7519 13.334 13.7936 14.03 13.4584 15.0582L7.1167 12.9998C8.34552 9.22484 11.8634 6.66883 15.8334 6.6665Z" fill="#D9D9D9"/>
<path d="M14.3668 17.8583L10.4418 23.25C8.07222 21.5216 6.66975 18.7662 6.66675 15.8333C6.66572 14.871 6.81761 13.9146 7.11675 13L13.4584 15.0583C13.3738 15.3079 13.3315 15.5698 13.3334 15.8333C13.3322 16.6352 13.7167 17.3888 14.3668 17.8583Z" fill="#D9D9D9"/>
<path d="M21.225 23.2501C18.0092 25.5834 13.6574 25.5834 10.4417 23.2501L14.3667 17.8584C15.2417 18.4923 16.4249 18.4923 17.3 17.8584L21.225 23.2501Z" fill="#D9D9D9"/>
<path d="M25 15.8333C24.997 18.7662 23.5946 21.5216 21.225 23.25L17.3 17.8583C17.9501 17.3888 18.3346 16.6352 18.3334 15.8333C18.3353 15.5698 18.293 15.3079 18.2084 15.0583L24.55 13C24.8492 13.9146 25.0011 14.871 25 15.8333V15.8333Z" fill="#D9D9D9"/>
<path d="M24.5499 12.9998L18.2083 15.0582C17.873 14.03 16.9147 13.334 15.8333 13.3332V6.6665C19.8032 6.66883 23.3211 9.22484 24.5499 12.9998Z" fill="#D9D9D9"/>
<path d="M18.3333 15.8332C18.3345 16.6351 17.95 17.3887 17.3 17.8582C16.4249 18.4921 15.2417 18.4921 14.3666 17.8582C13.7166 17.3887 13.3321 16.6351 13.3333 15.8332C13.3314 15.5697 13.3737 15.3078 13.4583 15.0582C13.7955 14.0323 14.7534 13.3389 15.8333 13.3389C16.9132 13.3389 17.8711 14.0323 18.2083 15.0582C18.2929 15.3078 18.3352 15.5697 18.3333 15.8332V15.8332Z" fill="#C0C5E3"/>
<path d="M47.2558 14.4107C46.9304 14.0854 46.4029 14.0854 46.0775 14.4107L45 15.4882V14.1665C44.9954 10.0263 41.6402 6.6711 37.5 6.6665H35.8333C35.3731 6.6665 35 7.0396 35 7.49984C35 7.96007 35.3731 8.33317 35.8333 8.33317H37.5C40.7201 8.33684 43.3297 10.9464 43.3333 14.1665V15.4882L42.2558 14.4107C41.9289 14.0949 41.4091 14.0994 41.0876 14.4208C40.7662 14.7423 40.7617 15.262 41.0775 15.589L43.5775 18.089C43.9029 18.4143 44.4304 18.4143 44.7558 18.089L47.2558 15.589C47.5812 15.2636 47.5812 14.7361 47.2558 14.4107V14.4107Z" fill="black"/>
<path d="M14.1667 41.6668H12.5C9.27988 41.6631 6.67035 39.0536 6.66668 35.8335V34.5118L7.74418 35.5893C8.07116 35.9051 8.59092 35.9006 8.91236 35.5792C9.23381 35.2577 9.23832 34.738 8.92251 34.411L6.42251 31.911C6.0971 31.5857 5.5696 31.5857 5.24418 31.911L2.74418 34.411C2.42837 34.738 2.43289 35.2577 2.75433 35.5792C3.07578 35.9006 3.59553 35.9051 3.92251 35.5893L5.00001 34.5118V35.8335C5.00461 39.9737 8.35978 43.3289 12.5 43.3335H14.1667C14.6269 43.3335 15 42.9604 15 42.5001C15 42.0399 14.6269 41.6668 14.1667 41.6668Z" fill="black"/>
<path d="M47.8708 44.595L47.8791 44.5833V44.5742C50.6936 39.7072 50.7037 33.7098 47.9058 28.8333C47.8986 28.8064 47.8896 28.78 47.8791 28.7542C47.8579 28.7265 47.8348 28.7004 47.81 28.6758C46.4373 26.3435 44.4931 24.3994 42.1608 23.0267C42.1362 23.0026 42.1103 22.9798 42.0833 22.9583C42.0583 22.9442 42.0308 22.9442 42.005 22.9325C38.5939 20.9629 34.5652 20.3534 30.7241 21.2258C32.3041 16.8624 31.8829 12.0247 29.5725 8.00001C29.5654 7.97168 29.5565 7.94385 29.5458 7.91667C29.5245 7.88903 29.5014 7.86286 29.4766 7.83834C28.1037 5.50625 26.1596 3.56212 23.8275 2.18917C23.8028 2.16508 23.777 2.14228 23.75 2.12084C23.725 2.10667 23.6975 2.10667 23.6716 2.095C18.8194 -0.698335 12.8472 -0.698335 7.99497 2.095C7.96914 2.10667 7.94164 2.10667 7.91664 2.12084C7.88966 2.14228 7.86379 2.16508 7.83914 2.18917C5.5076 3.56064 3.56351 5.50301 2.18997 7.83334C2.16502 7.85949 2.14191 7.88733 2.12081 7.91667C2.11014 7.94385 2.10123 7.97168 2.09414 8.00001C-0.698047 12.852 -0.698047 18.823 2.09414 23.675C2.1014 23.7019 2.1103 23.7284 2.12081 23.7542C2.14997 23.8008 2.18376 23.8443 2.22164 23.8842C3.59256 26.1936 5.52489 28.119 7.83914 29.4817C7.86379 29.5058 7.88966 29.5286 7.91664 29.55C7.95156 29.5675 7.98778 29.5823 8.02497 29.5942C10.4027 30.9536 13.0944 31.668 15.8333 31.6667C16.9999 31.6626 18.1624 31.5301 19.3 31.2717C17.6863 35.6563 18.1081 40.5318 20.4508 44.5742V44.5833L20.4591 44.595C21.2667 45.988 22.2832 47.2488 23.4733 48.3333H20.8333C20.3731 48.3333 20 48.7064 20 49.1667C20 49.6269 20.3731 50 20.8333 50H47.5C47.9602 50 48.3333 49.6269 48.3333 49.1667C48.3333 48.7064 47.9602 48.3333 47.5 48.3333H44.86C46.0489 47.2485 47.0643 45.9878 47.8708 44.595V44.595ZM16.6666 29.9658V29.1667C16.6666 28.7064 16.2935 28.3333 15.8333 28.3333C15.3731 28.3333 15 28.7064 15 29.1667V29.9575C13.0826 29.8482 11.2081 29.3465 9.49247 28.4833L9.88831 27.7967C10.0395 27.5387 10.041 27.2195 9.89202 26.9602C9.74307 26.7009 9.46661 26.5412 9.16757 26.5419C8.86854 26.5425 8.59278 26.7034 8.44497 26.9633L8.04581 27.655C6.44352 26.5952 5.07144 25.2231 4.01164 23.6208L4.70331 23.2217C4.96327 23.0739 5.1241 22.7981 5.12476 22.4991C5.12542 22.2 4.96579 21.9236 4.70649 21.7746C4.44718 21.6257 4.12795 21.6271 3.86997 21.7783L3.18331 22.1742C2.32026 20.4585 1.81852 18.584 1.70914 16.6667H2.49997C2.96021 16.6667 3.33331 16.2936 3.33331 15.8333C3.33331 15.3731 2.96021 15 2.49997 15H1.70914C1.81852 13.0826 2.32026 11.2081 3.18331 9.4925L3.86997 9.88834C4.12795 10.0396 4.44718 10.041 4.70649 9.89205C4.96579 9.74311 5.12542 9.46664 5.12476 9.1676C5.1241 8.86857 4.96327 8.59281 4.70331 8.445L4.01164 8.04584C5.07144 6.44355 6.44352 5.07147 8.04581 4.01167L8.44497 4.70334C8.67665 5.09852 9.18385 5.23261 9.58055 5.00357C9.97726 4.77452 10.1147 4.26822 9.88831 3.87L9.49247 3.18334C11.2081 2.3202 13.0826 1.81846 15 1.70917V2.5C15 2.96024 15.3731 3.33334 15.8333 3.33334C16.2935 3.33334 16.6666 2.96024 16.6666 2.5V1.70917C18.584 1.81846 20.4585 2.3202 22.1741 3.18334L21.7783 3.87C21.6271 4.12798 21.6257 4.44721 21.7746 4.70652C21.9235 4.96583 22.2 5.12545 22.499 5.12479C22.7981 5.12413 23.0738 4.9633 23.2216 4.70334L23.6208 4.01167C25.2231 5.07147 26.5952 6.44355 27.655 8.04584L26.9633 8.445C26.7033 8.59281 26.5425 8.86857 26.5419 9.1676C26.5412 9.46664 26.7008 9.74311 26.9601 9.89205C27.2194 10.041 27.5387 10.0396 27.7966 9.88834L28.4833 9.4925C29.3464 11.2081 29.8481 13.0826 29.9575 15H29.1666C28.7064 15 28.3333 15.3731 28.3333 15.8333C28.3333 16.2936 28.7064 16.6667 29.1666 16.6667H29.9533C29.8569 18.4623 29.4116 20.222 28.6425 21.8475C27.843 22.1453 27.0691 22.5076 26.3283 22.9308C26.3025 22.9425 26.275 22.9425 26.25 22.9567C26.223 22.9781 26.1971 23.0009 26.1725 23.025C23.8402 24.3977 21.896 26.3419 20.5233 28.6742C20.4985 28.6987 20.4754 28.7249 20.4541 28.7525C20.4436 28.7783 20.4347 28.8048 20.4275 28.8317C20.335 28.9933 20.2416 29.1542 20.155 29.32C19.0236 29.6795 17.8518 29.8965 16.6666 29.9658V29.9658ZM26.1466 48.3333C24.6379 47.301 23.3442 45.9852 22.3375 44.4592L23.0366 44.055C23.2966 43.9072 23.4574 43.6314 23.4581 43.3324C23.4588 43.0334 23.2991 42.7569 23.0398 42.608C22.7805 42.459 22.4613 42.4604 22.2033 42.6117L21.5033 43.015C20.6406 41.2964 20.1379 39.4197 20.0258 37.5H20.8333C21.2935 37.5 21.6666 37.1269 21.6666 36.6667C21.6666 36.2064 21.2935 35.8333 20.8333 35.8333H20.0425C20.1519 33.916 20.6536 32.0415 21.5166 30.3258L22.2033 30.7217C22.4613 30.8729 22.7805 30.8743 23.0398 30.7254C23.2991 30.5764 23.4588 30.3 23.4581 30.0009C23.4574 29.7019 23.2966 29.4261 23.0366 29.2783L22.345 28.8792C23.4048 27.2769 24.7769 25.9048 26.3791 24.845L26.7783 25.5367C26.9261 25.7966 27.2019 25.9575 27.5009 25.9581C27.7999 25.9588 28.0764 25.7992 28.2254 25.5399C28.3743 25.2805 28.3729 24.9613 28.2216 24.7033L27.8258 24.0167C29.5414 23.1535 31.4159 22.6518 33.3333 22.5425V23.3333C33.3333 23.7936 33.7064 24.1667 34.1666 24.1667C34.6269 24.1667 35 23.7936 35 23.3333V22.5425C36.9174 22.6518 38.7919 23.1535 40.5075 24.0167L40.1116 24.7033C39.9604 24.9613 39.959 25.2805 40.1079 25.5399C40.2569 25.7992 40.5333 25.9588 40.8324 25.9581C41.1314 25.9575 41.4072 25.7966 41.555 25.5367L41.9541 24.845C43.5564 25.9048 44.9285 27.2769 45.9883 28.8792L45.2966 29.2783C45.0367 29.4261 44.8758 29.7019 44.8752 30.0009C44.8745 30.3 45.0342 30.5764 45.2935 30.7254C45.5528 30.8743 45.872 30.8729 46.13 30.7217L46.8166 30.3258C47.6797 32.0415 48.1814 33.916 48.2908 35.8333H47.5C47.0397 35.8333 46.6666 36.2064 46.6666 36.6667C46.6666 37.1269 47.0397 37.5 47.5 37.5H48.3075C48.1965 39.4195 47.6948 41.2961 46.8333 43.015L46.1333 42.6117C45.8753 42.4604 45.5561 42.459 45.2968 42.608C45.0375 42.7569 44.8779 43.0334 44.8785 43.3324C44.8792 43.6314 45.04 43.9072 45.3 44.055L45.9991 44.4592C44.9915 45.9855 43.6966 47.3013 42.1866 48.3333H26.1466Z" fill="black"/>
<path d="M34.1667 26.6665C28.6439 26.6665 24.1667 31.1437 24.1667 36.6665C24.1667 42.1894 28.6439 46.6665 34.1667 46.6665C39.6896 46.6665 44.1668 42.1894 44.1668 36.6665C44.1608 31.1461 39.6871 26.6725 34.1667 26.6665ZM41.7901 33.3132L36.9709 34.879C36.5173 34.1718 35.8134 33.662 35.0001 33.4515V28.3757C37.9865 28.6811 40.579 30.5663 41.7901 33.3132V33.3132ZM32.5001 36.6665C32.5001 35.746 33.2463 34.9998 34.1667 34.9998C35.0872 34.9998 35.8334 35.746 35.8334 36.6665C35.8334 37.587 35.0872 38.3332 34.1667 38.3332C33.2463 38.3332 32.5001 37.587 32.5001 36.6665ZM33.3334 28.3757V33.4515C32.52 33.662 31.8162 34.1718 31.3626 34.879L26.5434 33.3132C27.7545 30.5663 30.347 28.6811 33.3334 28.3757V28.3757ZM25.8334 36.6665C25.8343 36.0716 25.8992 35.4784 26.0267 34.8973L30.8534 36.4665C30.8492 36.534 30.8334 36.5982 30.8334 36.6665C30.8368 37.4377 31.1101 38.1833 31.6059 38.774L28.6267 42.874C26.8515 41.299 25.8348 39.0397 25.8334 36.6665V36.6665ZM29.9734 43.8557L32.9476 39.7615C33.7293 40.0793 34.6042 40.0793 35.3859 39.7615L38.3601 43.8557C35.7726 45.3811 32.5609 45.3811 29.9734 43.8557V43.8557ZM39.7067 42.874L36.7276 38.774C37.2234 38.1833 37.4967 37.4377 37.5001 36.6665C37.5001 36.5982 37.4843 36.534 37.4801 36.4665L42.3068 34.8973C42.9523 37.8311 41.9571 40.8842 39.7067 42.874V42.874Z" fill="black"/>
<path d="M25.8333 15.8335C25.8333 10.3106 21.3561 5.8335 15.8333 5.8335C10.3104 5.8335 5.83325 10.3106 5.83325 15.8335C5.83325 21.3563 10.3104 25.8335 15.8333 25.8335C21.3536 25.8275 25.8273 21.3539 25.8333 15.8335ZM21.3733 22.041L18.3941 17.941C18.8899 17.3503 19.1632 16.6047 19.1666 15.8335C19.1666 15.7652 19.1508 15.701 19.1466 15.6335L23.9733 14.0643C24.6188 16.9981 23.6236 20.0512 21.3733 22.041ZM14.1666 15.8335C14.1666 14.913 14.9128 14.1668 15.8333 14.1668C16.7537 14.1668 17.4999 14.913 17.4999 15.8335C17.4999 16.754 16.7537 17.5002 15.8333 17.5002C14.9128 17.5002 14.1666 16.754 14.1666 15.8335ZM23.4566 12.4802L18.6374 14.046C18.1838 13.3388 17.48 12.829 16.6666 12.6185V7.54266C19.653 7.84813 22.2455 9.73333 23.4566 12.4802ZM14.9999 7.54266V12.6185C14.1866 12.829 13.4827 13.3388 13.0291 14.046L8.20992 12.4802C9.42102 9.73333 12.0135 7.84813 14.9999 7.54266V7.54266ZM7.49992 15.8335C7.50084 15.2386 7.56566 14.6454 7.69325 14.0643L12.5199 15.6335C12.5199 15.701 12.4999 15.7652 12.4999 15.8335C12.5033 16.6047 12.7766 17.3503 13.2724 17.941L10.2933 22.041C8.51798 20.466 7.50133 18.2067 7.49992 15.8335ZM11.6399 23.0227L14.6141 18.9285C15.3958 19.2463 16.2707 19.2463 17.0524 18.9285L20.0266 23.0227C17.4391 24.5481 14.2274 24.5481 11.6399 23.0227Z" fill="black"/>
</svg>
