<svg width="8" height="10" viewBox="0 0 8 10" fill="none" xmlns="http://www.w3.org/2000/svg">
<path d="M1.19331 3.11043C1.06442 2.25635 1.66298 1.48917 2.57736 1.20809C2.73963 1.15818 2.9147 1.17239 3.06692 1.24782C3.21913 1.32326 3.33703 1.45424 3.39659 1.61409L3.69014 2.40164C3.7374 2.52833 3.74594 2.66634 3.71468 2.79796C3.68342 2.92958 3.61377 3.04879 3.51469 3.1403L2.64147 3.94482C2.59843 3.98456 2.56635 4.03484 2.54838 4.09077C2.5304 4.14669 2.52713 4.20634 2.5389 4.26391L2.54699 4.29922L2.56791 4.38748C2.67651 4.81631 2.84198 5.2285 3.05986 5.61293C3.2972 6.02143 3.59174 6.39345 3.93442 6.71753L3.96142 6.74197C4.00501 6.7809 4.05789 6.80781 4.11489 6.82006C4.17189 6.83232 4.23108 6.8295 4.28668 6.8119L5.41565 6.45411C5.54396 6.41358 5.68137 6.41254 5.81027 6.45113C5.93916 6.48972 6.05366 6.56618 6.13906 6.67069L6.67352 7.32313C6.89621 7.5947 6.86922 7.9939 6.61346 8.23356C5.91367 8.89007 4.95138 9.0245 4.28196 8.4834C3.46139 7.81749 2.76965 7.00532 2.2413 6.08749C1.70866 5.17037 1.35287 4.16033 1.19263 3.11043H1.19331ZM3.24678 4.30872L3.97019 3.64067C4.16848 3.45772 4.30789 3.21933 4.37054 2.95609C4.43318 2.69286 4.4162 2.41679 4.32177 2.16334L4.0289 1.37579C3.90901 1.05415 3.67174 0.7906 3.36543 0.638847C3.05911 0.487094 2.70681 0.458555 2.38031 0.559047C1.24459 0.908691 0.332911 1.93318 0.525909 3.21295C0.660873 4.1064 0.971965 5.24292 1.65826 6.42967C2.22829 7.41933 2.97446 8.29501 3.85952 9.01296C4.86365 9.82427 6.20384 9.54727 7.07436 8.73121C7.32345 8.49788 7.47464 8.17771 7.49709 7.83605C7.51954 7.49438 7.41155 7.15698 7.19515 6.89269L6.6607 6.23957C6.48972 6.03079 6.26066 5.87815 6.00288 5.80121C5.7451 5.72428 5.47036 5.72657 5.21388 5.80778L4.27656 6.10447C4.03455 5.85342 3.82256 5.57476 3.64493 5.27415C3.47334 4.97023 3.33961 4.64621 3.24678 4.3094V4.30872Z" fill="#019444"/>
</svg>
