<svg width="37" height="56" viewBox="0 0 37 56" fill="none" xmlns="http://www.w3.org/2000/svg">
<g filter="url(#filter0_d_53_569)">
<path d="M14.5357 36H22.4643L20.7736 47.3727C20.6061 48.4993 19.6389 49.3333 18.5 49.3333V49.3333C17.3611 49.3333 16.3939 48.4993 16.2264 47.3727L14.5357 36Z" fill="white"/>
</g>
<path d="M36 18.6667C36 28.4322 28.1565 36.3333 18.5 36.3333C8.84345 36.3333 1 28.4322 1 18.6667C1 8.90116 8.84345 1 18.5 1C28.1565 1 36 8.90116 36 18.6667Z" fill="#019444" stroke="white" stroke-width="2"/>
<path d="M23.05 18.8C24.127 18.8 25 19.6059 25 20.6V21.2C25 23.5657 22.5826 26 18.5 26C14.4174 26 12 23.5657 12 21.2V20.6C12 19.6059 12.873 18.8 13.95 18.8H23.05ZM18.5 11C20.4744 11 22.075 12.4775 22.075 14.3C22.075 16.1225 20.4744 17.6 18.5 17.6C16.5256 17.6 14.925 16.1225 14.925 14.3C14.925 12.4775 16.5256 11 18.5 11Z" fill="white"/>
<defs>
<filter id="filter0_d_53_569" x="10.5357" y="34" width="15.9286" height="21.3333" filterUnits="userSpaceOnUse" color-interpolation-filters="sRGB">
<feFlood flood-opacity="0" result="BackgroundImageFix"/>
<feColorMatrix in="SourceAlpha" type="matrix" values="0 0 0 0 0 0 0 0 0 0 0 0 0 0 0 0 0 0 127 0" result="hardAlpha"/>
<feOffset dy="2"/>
<feGaussianBlur stdDeviation="2"/>
<feComposite in2="hardAlpha" operator="out"/>
<feColorMatrix type="matrix" values="0 0 0 0 0 0 0 0 0 0 0 0 0 0 0 0 0 0 0.25 0"/>
<feBlend mode="normal" in2="BackgroundImageFix" result="effect1_dropShadow_53_569"/>
<feBlend mode="normal" in="SourceGraphic" in2="effect1_dropShadow_53_569" result="shape"/>
</filter>
</defs>
</svg>
