<svg width="484" height="484" viewBox="0 0 484 484" fill="none" xmlns="http://www.w3.org/2000/svg">
<circle opacity="0.2" cx="242" cy="242" r="242" fill="#019444"/>
<g filter="url(#filter0_d_53_650)">
<path d="M238.536 250H246.464L244.774 261.373C244.606 262.499 243.639 263.333 242.5 263.333V263.333C241.361 263.333 240.394 262.499 240.226 261.373L238.536 250Z" fill="white"/>
</g>
<path d="M260 232.667C260 242.432 252.157 250.333 242.5 250.333C232.843 250.333 225 242.432 225 232.667C225 222.901 232.843 215 242.5 215C252.157 215 260 222.901 260 232.667Z" fill="#019444" stroke="white" stroke-width="2"/>
<path d="M247.05 232.8C248.127 232.8 249 233.606 249 234.6V235.2C249 237.566 246.583 240 242.5 240C238.417 240 236 237.566 236 235.2V234.6C236 233.606 236.873 232.8 237.95 232.8H247.05ZM242.5 225C244.474 225 246.075 226.477 246.075 228.3C246.075 230.123 244.474 231.6 242.5 231.6C240.526 231.6 238.925 230.123 238.925 228.3C238.925 226.477 240.526 225 242.5 225Z" fill="white"/>
<defs>
<filter id="filter0_d_53_650" x="234.536" y="248" width="15.9286" height="21.3333" filterUnits="userSpaceOnUse" color-interpolation-filters="sRGB">
<feFlood flood-opacity="0" result="BackgroundImageFix"/>
<feColorMatrix in="SourceAlpha" type="matrix" values="0 0 0 0 0 0 0 0 0 0 0 0 0 0 0 0 0 0 127 0" result="hardAlpha"/>
<feOffset dy="2"/>
<feGaussianBlur stdDeviation="2"/>
<feComposite in2="hardAlpha" operator="out"/>
<feColorMatrix type="matrix" values="0 0 0 0 0 0 0 0 0 0 0 0 0 0 0 0 0 0 0.25 0"/>
<feBlend mode="normal" in2="BackgroundImageFix" result="effect1_dropShadow_53_650"/>
<feBlend mode="normal" in="SourceGraphic" in2="effect1_dropShadow_53_650" result="shape"/>
</filter>
</defs>
</svg>
