<svg width="24" height="24" viewBox="0 0 24 24" fill="none" xmlns="http://www.w3.org/2000/svg">
<path d="M2.63398 17.918C2.77898 18.555 3.25298 19.026 3.83498 19.209L4.01498 20H3.99998V22H20V20H6.68298C6.69198 19.909 6.69798 19.816 6.67598 19.722L6.47998 18.859L16.837 16.503L17.033 17.366C17.142 17.843 17.616 18.141 18.093 18.033L18.956 17.836C19.434 17.728 19.731 17.253 19.623 16.776L19.372 15.673C19.818 15.257 20.042 14.627 19.897 13.99L19.307 11.4C19.158 10.741 18.655 10.26 18.045 10.093L15.996 6.715C15.376 5.696 14.178 5.191 13.014 5.452L5.14598 7.242C3.98098 7.507 3.11998 8.483 3.00198 9.672L2.61498 13.604C2.13798 14.019 1.89398 14.669 2.04498 15.328L2.63398 17.918ZM5.65398 17.23C4.93998 17.393 4.22698 16.945 4.06498 16.23C3.90198 15.515 4.34998 14.803 5.06498 14.641C5.77998 14.479 6.49198 14.926 6.65498 15.641C6.81698 16.356 6.36898 17.068 5.65398 17.23ZM16.876 14.678C16.161 14.841 15.449 14.392 15.286 13.678C15.124 12.963 15.572 12.251 16.287 12.089C17.002 11.927 17.714 12.375 17.876 13.089C18.039 13.803 17.591 14.515 16.876 14.678ZM5.58898 9.192L13.458 7.401C13.781 7.328 14.115 7.469 14.288 7.752L15.873 10.365L15.307 10.494L5.26098 12.781L4.69298 12.91L4.99198 9.868C5.02498 9.538 5.26498 9.266 5.58898 9.192ZM18.405 4L17 2L16.5 5L19 9L22 10L20 7.461L22 6.528L20 5.595L22 2L18.405 4Z" fill="#019444"/>
</svg>
