<svg width="10" height="10" viewBox="0 0 10 10" fill="none" xmlns="http://www.w3.org/2000/svg">
<path fill-rule="evenodd" clip-rule="evenodd" d="M7.28018 5.99252C7.15601 5.93043 6.54726 5.63127 6.43393 5.5896C6.32059 5.54835 6.23809 5.52793 6.15518 5.6521C6.07268 5.77543 5.83559 6.0546 5.76351 6.1371C5.69101 6.22002 5.61893 6.23002 5.49518 6.16835C5.37143 6.10585 4.97226 5.97543 4.49934 5.55377C4.13143 5.22543 3.88268 4.82002 3.81059 4.69585C3.73851 4.5721 3.80268 4.50502 3.86476 4.44335C3.92059 4.38793 3.98851 4.29877 4.05059 4.22668C4.11268 4.15418 4.13309 4.10252 4.17434 4.0196C4.21601 3.9371 4.19518 3.86502 4.16393 3.80293C4.13309 3.74085 3.88559 3.13127 3.78226 2.88335C3.68184 2.6421 3.57976 2.67502 3.50393 2.67085C3.43143 2.66752 3.34893 2.66668 3.26643 2.66668C3.18393 2.66668 3.04976 2.69752 2.93643 2.82168C2.82268 2.94543 2.50309 3.24502 2.50309 3.8546C2.50309 4.46377 2.94643 5.05252 3.00851 5.13543C3.07059 5.21793 3.88143 6.46877 5.12351 7.00502C5.41934 7.13252 5.64976 7.20877 5.82934 7.26543C6.12601 7.36002 6.39601 7.34668 6.60934 7.3146C6.84684 7.27918 7.34184 7.01502 7.44518 6.72585C7.54809 6.43668 7.54809 6.18877 7.51726 6.1371C7.48643 6.08543 7.40393 6.0546 7.27976 5.99252H7.28018ZM5.02101 9.0771H5.01934C4.28161 9.07724 3.55741 8.87892 2.92268 8.50293L2.77268 8.41377L1.21351 8.82293L1.62976 7.30293L1.53184 7.1471C1.1194 6.49058 0.901132 5.73076 0.902259 4.95543C0.903093 2.6846 2.75059 0.8371 5.02268 0.8371C6.12268 0.8371 7.15684 1.26627 7.93434 2.0446C8.31783 2.42651 8.62179 2.88067 8.82862 3.38081C9.03546 3.88095 9.14107 4.41713 9.13934 4.95835C9.13851 7.22918 7.29101 9.0771 5.02101 9.0771ZM8.52601 1.45335C8.06692 0.991235 7.52069 0.624824 6.91896 0.375351C6.31724 0.125877 5.67198 -0.00169844 5.02059 1.7074e-05C2.28976 1.7074e-05 0.0664258 2.22293 0.0655924 4.95502C0.064327 5.8245 0.292415 6.67893 0.726843 7.4321L0.0239258 10L2.65059 9.31085C3.37721 9.70673 4.19146 9.91417 5.01893 9.91418H5.02101C7.75184 9.91418 9.97518 7.69127 9.97601 4.95877C9.97802 4.30763 9.85091 3.66256 9.60202 3.06086C9.35313 2.45917 8.98741 1.9128 8.52601 1.45335Z" fill="white"/>
</svg>
