<svg width="30" height="47" viewBox="0 0 30 47" fill="none" xmlns="http://www.w3.org/2000/svg">
<g filter="url(#filter0_d_53_560)">
<path d="M11.7858 29.5714H18.2143L16.8405 38.9337C16.7065 39.8469 15.9231 40.5238 15.0001 40.5238V40.5238C14.077 40.5238 13.2936 39.8469 13.1596 38.9337L11.7858 29.5714Z" fill="white"/>
</g>
<path d="M29 15.3333C29 23.2702 22.7114 29.6667 15 29.6667C7.28862 29.6667 1 23.2702 1 15.3333C1 7.39642 7.28862 1 15 1C22.7114 1 29 7.39642 29 15.3333Z" fill="#ED892C" stroke="white" stroke-width="2"/>
<path d="M15 9C18.3137 9 21 11.6863 21 15C21 17.8672 19.065 20.5058 15.2684 22.9218C15.1047 23.0261 14.8953 23.0261 14.7316 22.9218C10.935 20.5058 9 17.8672 9 15C9 11.6863 11.6863 9 15 9ZM15 13C13.8954 13 13 13.8954 13 15C13 16.1046 13.8954 17 15 17C16.1046 17 17 16.1046 17 15C17 13.8954 16.1046 13 15 13Z" fill="white"/>
<defs>
<filter id="filter0_d_53_560" x="7.78577" y="27.5714" width="14.4286" height="18.9524" filterUnits="userSpaceOnUse" color-interpolation-filters="sRGB">
<feFlood flood-opacity="0" result="BackgroundImageFix"/>
<feColorMatrix in="SourceAlpha" type="matrix" values="0 0 0 0 0 0 0 0 0 0 0 0 0 0 0 0 0 0 127 0" result="hardAlpha"/>
<feOffset dy="2"/>
<feGaussianBlur stdDeviation="2"/>
<feComposite in2="hardAlpha" operator="out"/>
<feColorMatrix type="matrix" values="0 0 0 0 0 0 0 0 0 0 0 0 0 0 0 0 0 0 0.25 0"/>
<feBlend mode="normal" in2="BackgroundImageFix" result="effect1_dropShadow_53_560"/>
<feBlend mode="normal" in="SourceGraphic" in2="effect1_dropShadow_53_560" result="shape"/>
</filter>
</defs>
</svg>
